999
dxfrw 0.6.3
  0
SECTION
  2
HEADER
  9
$ACADVER
  1
AC1021
  9
$DWGCODEPAGE
  3
ANSI_936
  9
$INSBASE
 10
0
 20
0
 30
0
  9
$EXTMIN
 10
0
 20
-1.809
 30
0
  9
$EXTMAX
 10
531.643604399
 20
43.71444444444445
 30
0
  9
$LIMMIN
 10
0
 20
0
  9
$LIMMAX
 10
420
 20
297
  9
$ORTHOMODE
 70
    0
  9
$REGENMODE
 70
    1
  9
$FILLMODE
 70
    1
  9
$QTEXTMODE
 70
    0
  9
$MIRRTEXT
 70
    0
  9
$LTSCALE
 40
1
  9
$ATTMODE
 70
    0
  9
$TEXTSIZE
 40
2.5
  9
$TRACEWID
 40
15.68
  9
$TEXTSTYLE
  7
STANDARD
  9
$CLAYER
  8
0
  9
$CELTYPE
  6
BYLAYER
  9
$CECOLOR
 62
  256
  9
$CELTSCALE
 40
1
  9
$DISPSILH
 70
    0
  9
$DIMSCALE
 40
2.5
  9
$DIMASZ
 40
2.5
  9
$DIMEXO
 40
0.625
  9
$DIMDLI
 40
3.75
  9
$DIMRND
 40
0
  9
$DIMDLE
 40
0
  9
$DIMEXE
 40
1.25
  9
$DIMTP
 40
0
  9
$DIMTM
 40
0
  9
$DIMTXT
 40
2.5
  9
$DIMCEN
 40
2.5
  9
$DIMTSZ
 40
0
  9
$DIMTOL
 70
    0
  9
$DIMLIM
 70
    0
  9
$DIMTIH
 70
    0
  9
$DIMTOH
 70
    0
  9
$DIMSE1
 70
    0
  9
$DIMSE2
 70
    0
  9
$DIMTAD
 70
    1
  9
$DIMZIN
 70
    8
  9
$DIMBLK
  1

  9
$DIMASO
 70
    1
  9
$DIMSHO
 70
    1
  9
$DIMPOST
  1

  9
$DIMAPOST
  1

  9
$DIMALT
 70
    0
  9
$DIMALTD
 70
    3
  9
$DIMALTF
 40
0.03937
  9
$DIMLFAC
 40
1
  9
$DIMTOFL
 70
    1
  9
$DIMTVP
 40
0
  9
$DIMTIX
 70
    0
  9
$DIMSOXD
 70
    0
  9
$DIMSAH
 70
    0
  9
$DIMBLK1
  1

  9
$DIMBLK2
  1

  9
$DIMSTYLE
  2
Standard
  9
$DIMCLRD
 70
    0
  9
$DIMCLRE
 70
    0
  9
$DIMCLRT
 70
    0
  9
$DIMTFAC
 40
1
  9
$DIMGAP
 40
0.625
  9
$DIMJUST
 70
    0
  9
$DIMSD1
 70
    0
  9
$DIMSD2
 70
    0
  9
$DIMTOLJ
 70
    0
  9
$DIMTZIN
 70
    8
  9
$DIMALTZ
 70
    0
  9
$DIMALTTZ
 70
    0
  9
$DIMUPT
 70
    0
  9
$DIMDEC
 70
    2
  9
$DIMTDEC
 70
    2
  9
$DIMALTU
 70
    2
  9
$DIMALTTD
 70
    3
  9
$DIMTXSTY
  7
STANDARD
  9
$DIMAUNIT
 70
    0
  9
$DIMADEC
 70
    0
  9
$DIMALTRND
 40
0
  9
$DIMAZIN
 70
    0
  9
$DIMDSEP
 70
   44
  9
$DIMATFIT
 70
    3
  9
$DIMFRAC
 70
    0
  9
$DIMLDRBLK
  1
STANDARD
  9
$DIMLUNIT
 70
    2
  9
$DIMLWD
 70
   -2
  9
$DIMLWE
 70
   -2
  9
$DIMTMOVE
 70
    0
  9
$DIMFXL
 40
1
  9
$DIMFXLON
 70
    0
  9
$DIMJOGANG
 40
0.7854
  9
$DIMTFILL
 70
    0
  9
$DIMTFILLCLR
 70
    0
  9
$DIMARCSYM
 70
    0
  9
$DIMLTYPE
  6

  9
$DIMLTEX1
  6

  9
$DIMLTEX2
  6

  9
$LUNITS
 70
    2
  9
$LUPREC
 70
    4
  9
$SKETCHINC
 40
1
  9
$FILLETRAD
 40
0
  9
$AUNITS
 70
    0
  9
$AUPREC
 70
    2
  9
$MENU
  1
.
  9
$ELEVATION
 40
0
  9
$PELEVATION
 40
0
  9
$THICKNESS
 40
0
  9
$LIMCHECK
 70
    0
  9
$CHAMFERA
 40
0
  9
$CHAMFERB
 40
0
  9
$CHAMFERC
 40
0
  9
$CHAMFERD
 40
0
  9
$SKPOLY
 70
    0
  9
$USRTIMER
 70
    1
  9
$ANGBASE
 50
0
  9
$ANGDIR
 70
    0
  9
$PDMODE
 70
   34
  9
$PDSIZE
 40
0
  9
$PLINEWID
 40
0
  9
$SPLFRAME
 70
    0
  9
$SPLINETYPE
 70
    2
  9
$SPLINESEGS
 70
    8
  9
$HANDSEED
  5
20000
  9
$SURFTAB1
 70
    6
  9
$SURFTAB2
 70
    6
  9
$SURFTYPE
 70
    6
  9
$SURFU
 70
    6
  9
$SURFV
 70
    6
  9
$UCSBASE
  2

  9
$UCSNAME
  2

  9
$UCSORG
 10
0
 20
0
 30
0
  9
$UCSXDIR
 10
1
 20
0
 30
0
  9
$UCSYDIR
 10
0
 20
1
 30
0
  9
$UCSORTHOREF
  2

  9
$UCSORTHOVIEW
 70
    0
  9
$UCSORGTOP
 10
0
 20
0
 30
0
  9
$UCSORGBOTTOM
 10
0
 20
0
 30
0
  9
$UCSORGLEFT
 10
0
 20
0
 30
0
  9
$UCSORGRIGHT
 10
0
 20
0
 30
0
  9
$UCSORGFRONT
 10
0
 20
0
 30
0
  9
$UCSORGBACK
 10
0
 20
0
 30
0
  9
$PUCSBASE
  2

  9
$PUCSNAME
  2

  9
$PUCSORG
 10
0
 20
0
 30
0
  9
$PUCSXDIR
 10
1
 20
0
 30
0
  9
$PUCSYDIR
 10
0
 20
1
 30
0
  9
$PUCSORTHOREF
  2

  9
$PUCSORTHOVIEW
 70
    0
  9
$PUCSORGTOP
 10
0
 20
0
 30
0
  9
$PUCSORGBOTTOM
 10
0
 20
0
 30
0
  9
$PUCSORGLEFT
 10
0
 20
0
 30
0
  9
$PUCSORGRIGHT
 10
0
 20
0
 30
0
  9
$PUCSORGFRONT
 10
0
 20
0
 30
0
  9
$PUCSORGBACK
 10
0
 20
0
 30
0
  9
$USERI1
 70
    0
  9
$USERI2
 70
    0
  9
$USERI3
 70
    0
  9
$USERI4
 70
    0
  9
$USERI5
 70
    0
  9
$USERR1
 40
0
  9
$USERR2
 40
0
  9
$USERR3
 40
0
  9
$USERR4
 40
0
  9
$USERR5
 40
0
  9
$WORLDVIEW
 70
    1
  9
$SHADEDGE
 70
    3
  9
$SHADEDIF
 70
   70
  9
$TILEMODE
 70
    1
  9
$MAXACTVP
 70
   64
  9
$PINSBASE
 10
0
 20
0
 30
0
  9
$PLIMCHECK
 70
    0
  9
$PEXTMIN
 10
0
 20
0
 30
0
  9
$PEXTMAX
 10
0
 20
0
 30
0
  9
$SNAPSTYLE
 70
    0
  9
$PLIMMIN
 10
0
 20
0
  9
$PLIMMAX
 10
210
 20
297
  9
$UNITMODE
 70
    0
  9
$VISRETAIN
 70
    1
  9
$PLINEGEN
 70
    0
  9
$PSLTSCALE
 70
    1
  9
$TREEDEPTH
 70
 3020
  9
$CMLSTYLE
  2
Standard
  9
$CMLJUST
 70
    0
  9
$CMLSCALE
 40
20
  9
$PROXYGRAPHICS
 70
    1
  9
$MEASUREMENT
 70
    1
  9
$CELWEIGHT
370
   -1
  9
$ENDCAPS
280
    0
  9
$JOINSTYLE
280
    0
  9
$LWDISPLAY
290
    0
  9
$INSUNITS
 70
    6
  9
$HYPERLINKBASE
  1

  9
$STYLESHEET
  1

  9
$XEDIT
290
    1
  9
$CEPSNTYPE
380
    0
  9
$PSTYLEMODE
290
    1
  9
$EXTNAMES
290
    1
  9
$PSVPSCALE
 40
1
  9
$OLESTARTUP
290
    0
  9
$SORTENTS
280
  127
  9
$INDEXCTL
280
    0
  9
$HIDETEXT
280
    1
  9
$XCLIPFRAME
290
    0
  9
$HALOGAP
280
    0
  9
$OBSCOLOR
 70
  257
  9
$OBSLTYPE
280
    0
  9
$INTERSECTIONDISPLAY
280
    0
  9
$INTERSECTIONCOLOR
 70
  257
  9
$DIMASSOC
280
    1
  9
$PROJECTNAME
  1

  9
$CAMERADISPLAY
290
    0
  9
$LENSLENGTH
 40
50
  9
$CAMERAHEIGHT
 40
0
  9
$STEPSPERSEC
 40
2
  9
$STEPSIZE
 40
50
  9
$3DDWFPREC
 40
2
  9
$PSOLWIDTH
 40
5
  9
$PSOLHEIGHT
 40
80
  9
$LOFTANG1
 40
1.570796326794897
  9
$LOFTANG2
 40
1.570796326794897
  9
$LOFTMAG1
 40
0
  9
$LOFTMAG2
 40
0
  9
$LOFTPARAM
 70
    7
  9
$LOFTNORMALS
280
    1
  9
$LATITUDE
 40
1
  9
$LONGITUDE
 40
1
  9
$NORTHDIRECTION
 40
0
  9
$TIMEZONE
 70
-8000
  9
$LIGHTGLYPHDISPLAY
280
    1
  9
$TILEMODELIGHTSYNCH
280
    1
  9
$SOLIDHIST
280
    1
  9
$SHOWHIST
280
    1
  9
$DWFFRAME
280
    2
  9
$DGNFRAME
280
    0
  9
$REALWORLDSCALE
290
    1
  9
$INTERFERECOLOR
 62
    1
  9
$CSHADOW
280
    0
  9
$SHADOWPLANELOCATION
 40
0
  0
ENDSEC
  0
SECTION
  2
CLASSES
  0
ENDSEC
  0
SECTION
  2
TABLES
  0
TABLE
  2
VPORT
  5
8
330
0
100
AcDbSymbolTable
 70
    1
  0
VPORT
  5
31
330
2
100
AcDbSymbolTableRecord
100
AcDbViewportTableRecord
  2
*ACTIVE
 70
    0
 10
0
 20
0
 11
1
 21
1
 12
302.4420000000004
 22
126.3491250000002
 13
0
 23
0
 14
10
 24
10
 15
10
 25
10
 16
0
 26
0
 36
1
 17
0
 27
0
 37
0
 40
365.2612500000005
 41
1.713618677042801
 42
50
 43
0
 44
0
 50
0
 51
0
 71
    0
 72
  100
 73
    1
 74
    3
 75
    0
 76
    1
 77
    0
 78
    0
281
    0
 65
    1
110
0
120
0
130
0
111
1
121
0
131
0
112
0
122
1
132
0
 79
    0
146
0
348
10020
 60
    7
 61
    5
292
1
282
    1
141
0
142
0
 63
  250
421
3358443
  0
ENDTAB
  0
TABLE
  2
LTYPE
  5
5
330
0
100
AcDbSymbolTable
 70
    4
  0
LTYPE
  5
14
330
5
100
AcDbSymbolTableRecord
100
AcDbLinetypeTableRecord
  2
ByBlock
 70
    0
  3

 72
   65
 73
    0
 40
0
  0
LTYPE
  5
15
330
5
100
AcDbSymbolTableRecord
100
AcDbLinetypeTableRecord
  2
ByLayer
 70
    0
  3

 72
   65
 73
    0
 40
0
  0
LTYPE
  5
16
330
5
100
AcDbSymbolTableRecord
100
AcDbLinetypeTableRecord
  2
Continuous
 70
    0
  3
Solid line
 72
   65
 73
    0
 40
0
  0
LTYPE
  5
32
330
5
100
AcDbSymbolTableRecord
100
AcDbLinetypeTableRecord
  2
DOT
 70
    0
  3
Dot . . . . . . . . . . . . . . . . . . . . . .
 72
   65
 73
    2
 40
6.35
 49
0
 74
    0
 49
-6.35
 74
    0
  0
LTYPE
  5
33
330
5
100
AcDbSymbolTableRecord
100
AcDbLinetypeTableRecord
  2
DOTTINY
 70
    0
  3
Dot (.15x) .....................................
 72
   65
 73
    2
 40
0.9525
 49
0
 74
    0
 49
-0.9525
 74
    0
  0
LTYPE
  5
34
330
5
100
AcDbSymbolTableRecord
100
AcDbLinetypeTableRecord
  2
DOT2
 70
    0
  3
Dot (.5x) .....................................
 72
   65
 73
    2
 40
3.175
 49
0
 74
    0
 49
-3.175
 74
    0
  0
LTYPE
  5
35
330
5
100
AcDbSymbolTableRecord
100
AcDbLinetypeTableRecord
  2
DOTX2
 70
    0
  3
Dot (2x) .  .  .  .  .  .  .  .  .  .  .  .  .
 72
   65
 73
    2
 40
12.7
 49
0
 74
    0
 49
-12.7
 74
    0
  0
LTYPE
  5
36
330
5
100
AcDbSymbolTableRecord
100
AcDbLinetypeTableRecord
  2
DASHED
 70
    0
  3
Dashed _ _ _ _ _ _ _ _ _ _ _ _ _ _ _ _ _
 72
   65
 73
    2
 40
19.05
 49
12.7
 74
    0
 49
-6.35
 74
    0
  0
LTYPE
  5
37
330
5
100
AcDbSymbolTableRecord
100
AcDbLinetypeTableRecord
  2
DASHEDTINY
 70
    0
  3
Dashed (.15x) _ _ _ _ _ _ _ _ _ _ _ _ _ _ _ _ _
 72
   65
 73
    2
 40
2.8575
 49
1.905
 74
    0
 49
-0.9525
 74
    0
  0
LTYPE
  5
38
330
5
100
AcDbSymbolTableRecord
100
AcDbLinetypeTableRecord
  2
DASHED2
 70
    0
  3
Dashed (.5x) _ _ _ _ _ _ _ _ _ _ _ _ _ _ _ _ _
 72
   65
 73
    2
 40
9.524999999999999
 49
6.35
 74
    0
 49
-3.175
 74
    0
  0
LTYPE
  5
39
330
5
100
AcDbSymbolTableRecord
100
AcDbLinetypeTableRecord
  2
DASHEDX2
 70
    0
  3
Dashed (2x) ____  ____  ____  ____  ____  ___
 72
   65
 73
    2
 40
38.09999999999999
 49
25.4
 74
    0
 49
-12.7
 74
    0
  0
LTYPE
  5
3A
330
5
100
AcDbSymbolTableRecord
100
AcDbLinetypeTableRecord
  2
DASHDOT
 70
    0
  3
Dash dot __ . __ . __ . __ . __ . __ . __ . __
 72
   65
 73
    4
 40
25.4
 49
12.7
 74
    0
 49
-6.35
 74
    0
 49
0
 74
    0
 49
-6.35
 74
    0
  0
LTYPE
  5
3B
330
5
100
AcDbSymbolTableRecord
100
AcDbLinetypeTableRecord
  2
DASHDOTTINY
 70
    0
  3
Dash dot (.15x) _._._._._._._._._._._._._._._.
 72
   65
 73
    4
 40
3.81
 49
1.905
 74
    0
 49
-0.9525
 74
    0
 49
0
 74
    0
 49
-0.9525
 74
    0
  0
LTYPE
  5
3C
330
5
100
AcDbSymbolTableRecord
100
AcDbLinetypeTableRecord
  2
DASHDOT2
 70
    0
  3
Dash dot (.5x) _._._._._._._._._._._._._._._.
 72
   65
 73
    4
 40
12.7
 49
6.35
 74
    0
 49
-3.175
 74
    0
 49
0
 74
    0
 49
-3.175
 74
    0
  0
LTYPE
  5
3D
330
5
100
AcDbSymbolTableRecord
100
AcDbLinetypeTableRecord
  2
DASHDOTX2
 70
    0
  3
Dash dot (2x) ____  .  ____  .  ____  .  ___
 72
   65
 73
    4
 40
50.8
 49
25.4
 74
    0
 49
-12.7
 74
    0
 49
0
 74
    0
 49
-12.7
 74
    0
  0
LTYPE
  5
3E
330
5
100
AcDbSymbolTableRecord
100
AcDbLinetypeTableRecord
  2
DIVIDE
 70
    0
  3
Divide ____ . . ____ . . ____ . . ____ . . ____
 72
   65
 73
    6
 40
31.75
 49
12.7
 74
    0
 49
-6.35
 74
    0
 49
0
 74
    0
 49
-6.35
 74
    0
 49
0
 74
    0
 49
-6.35
 74
    0
  0
LTYPE
  5
3F
330
5
100
AcDbSymbolTableRecord
100
AcDbLinetypeTableRecord
  2
DIVIDETINY
 70
    0
  3
Divide (.15x) __..__..__..__..__..__..__..__.._
 72
   65
 73
    6
 40
4.7625
 49
1.905
 74
    0
 49
-0.9525
 74
    0
 49
0
 74
    0
 49
-0.9525
 74
    0
 49
0
 74
    0
 49
-0.9525
 74
    0
  0
LTYPE
  5
40
330
5
100
AcDbSymbolTableRecord
100
AcDbLinetypeTableRecord
  2
DIVIDE2
 70
    0
  3
Divide (.5x) __..__..__..__..__..__..__..__.._
 72
   65
 73
    6
 40
15.875
 49
6.35
 74
    0
 49
-3.175
 74
    0
 49
0
 74
    0
 49
-3.175
 74
    0
 49
0
 74
    0
 49
-3.175
 74
    0
  0
LTYPE
  5
41
330
5
100
AcDbSymbolTableRecord
100
AcDbLinetypeTableRecord
  2
DIVIDEX2
 70
    0
  3
Divide (2x) ________  .  .  ________  .  .  _
 72
   65
 73
    6
 40
63.5
 49
25.4
 74
    0
 49
-12.7
 74
    0
 49
0
 74
    0
 49
-12.7
 74
    0
 49
0
 74
    0
 49
-12.7
 74
    0
  0
LTYPE
  5
42
330
5
100
AcDbSymbolTableRecord
100
AcDbLinetypeTableRecord
  2
BORDER
 70
    0
  3
Border __ __ . __ __ . __ __ . __ __ . __ __ .
 72
   65
 73
    6
 40
44.45
 49
12.7
 74
    0
 49
-6.35
 74
    0
 49
12.7
 74
    0
 49
-6.35
 74
    0
 49
0
 74
    0
 49
-6.35
 74
    0
  0
LTYPE
  5
43
330
5
100
AcDbSymbolTableRecord
100
AcDbLinetypeTableRecord
  2
BORDERTINY
 70
    0
  3
Border (.15x) __.__.__.__.__.__.__.__.__.__.__.
 72
   65
 73
    6
 40
6.6675
 49
1.905
 74
    0
 49
-0.9525
 74
    0
 49
1.905
 74
    0
 49
-0.9525
 74
    0
 49
0
 74
    0
 49
-0.9525
 74
    0
  0
LTYPE
  5
44
330
5
100
AcDbSymbolTableRecord
100
AcDbLinetypeTableRecord
  2
BORDER2
 70
    0
  3
Border (.5x) __.__.__.__.__.__.__.__.__.__.__.
 72
   65
 73
    6
 40
22.225
 49
6.35
 74
    0
 49
-3.175
 74
    0
 49
6.35
 74
    0
 49
-3.175
 74
    0
 49
0
 74
    0
 49
-3.175
 74
    0
  0
LTYPE
  5
45
330
5
100
AcDbSymbolTableRecord
100
AcDbLinetypeTableRecord
  2
BORDERX2
 70
    0
  3
Border (2x) ____  ____  .  ____  ____  .  ___
 72
   65
 73
    6
 40
88.89999999999999
 49
25.4
 74
    0
 49
-12.7
 74
    0
 49
25.4
 74
    0
 49
-12.7
 74
    0
 49
0
 74
    0
 49
-12.7
 74
    0
  0
LTYPE
  5
46
330
5
100
AcDbSymbolTableRecord
100
AcDbLinetypeTableRecord
  2
CENTER
 70
    0
  3
Center ____ _ ____ _ ____ _ ____ _ ____ _ ____
 72
   65
 73
    4
 40
50.8
 49
31.75
 74
    0
 49
-6.35
 74
    0
 49
6.35
 74
    0
 49
-6.35
 74
    0
  0
LTYPE
  5
47
330
5
100
AcDbSymbolTableRecord
100
AcDbLinetypeTableRecord
  2
CENTERTINY
 70
    0
  3
Center (.15x) ___ _ ___ _ ___ _ ___ _ ___ _ ___
 72
   65
 73
    4
 40
7.619999999999999
 49
4.7625
 74
    0
 49
-0.9525
 74
    0
 49
0.9525
 74
    0
 49
-0.9525
 74
    0
  0
LTYPE
  5
48
330
5
100
AcDbSymbolTableRecord
100
AcDbLinetypeTableRecord
  2
CENTER2
 70
    0
  3
Center (.5x) ___ _ ___ _ ___ _ ___ _ ___ _ ___
 72
   65
 73
    4
 40
28.575
 49
19.05
 74
    0
 49
-3.175
 74
    0
 49
3.175
 74
    0
 49
-3.175
 74
    0
  0
LTYPE
  5
49
330
5
100
AcDbSymbolTableRecord
100
AcDbLinetypeTableRecord
  2
CENTERX2
 70
    0
  3
Center (2x) ________  __  ________  __  _____
 72
   65
 73
    4
 40
101.6
 49
63.5
 74
    0
 49
-12.7
 74
    0
 49
12.7
 74
    0
 49
-12.7
 74
    0
  0
ENDTAB
  0
TABLE
  2
LAYER
  5
2
330
0
100
AcDbSymbolTable
 70
    1
  0
LAYER
  5
10
330
2
100
AcDbSymbolTableRecord
100
AcDbLayerTableRecord
  2
0
 70
    0
 62
    7
  6
CONTINUOUS
370
    0
390
F
  0
LAYER
  5
4A
330
2
100
AcDbSymbolTableRecord
100
AcDbLayerTableRecord
  2
ANNOTATION
 70
    0
 62
    7
  6
CONTINUOUS
370
   -3
390
F
  0
LAYER
  5
4B
330
2
100
AcDbSymbolTableRecord
100
AcDbLayerTableRecord
  2
CURRENT_BED
 70
    0
 62
    8
  6
CONTINUOUS
370
   -3
390
F
  0
LAYER
  5
4C
330
2
100
AcDbSymbolTableRecord
100
AcDbLayerTableRecord
  2
DESIGN_CENTER
 70
    0
 62
    1
  6
CONTINUOUS
370
   -3
390
F
  0
LAYER
  5
4D
330
2
100
AcDbSymbolTableRecord
100
AcDbLayerTableRecord
  2
DESIGN_DISTRIBUTED
 70
    0
 62
    3
  6
CONTINUOUS
370
   -3
390
F
  0
LAYER
  5
4E
330
2
100
AcDbSymbolTableRecord
100
AcDbLayerTableRecord
  2
DESIGN_LOCAL
 70
    0
 62
    5
  6
CONTINUOUS
370
   -3
390
F
  0
LAYER
  5
4F
330
2
100
AcDbSymbolTableRecord
100
AcDbLayerTableRecord
  2
FRAME
 70
    0
 62
    8
  6
CONTINUOUS
370
   -3
390
F
  0
LAYER
  5
50
330
2
100
AcDbSymbolTableRecord
100
AcDbLayerTableRecord
  2
PIER_CONTROL
 70
    0
 62
    6
  6
CONTINUOUS
370
   -3
390
F
  0
LAYER
  5
51
330
2
100
AcDbSymbolTableRecord
100
AcDbLayerTableRecord
  2
WSE_22_190
 70
    0
 62
    4
  6
CONTINUOUS
370
   -3
390
F
  0
ENDTAB
  0
TABLE
  2
STYLE
  5
3
330
0
100
AcDbSymbolTable
 70
    3
  0
STYLE
  5
52
330
2
100
AcDbSymbolTableRecord
100
AcDbTextStyleTableRecord
  2
STANDARD
 70
    0
 40
0
 41
1
 50
0
 71
    0
 42
1
  3
STANDARD
  4

  0
ENDTAB
  0
TABLE
  2
VIEW
  5
6
330
0
100
AcDbSymbolTable
 70
    0
  0
ENDTAB
  0
TABLE
  2
UCS
  5
7
330
0
100
AcDbSymbolTable
 70
    0
  0
ENDTAB
  0
TABLE
  2
APPID
  5
9
330
0
100
AcDbSymbolTable
 70
    1
  0
APPID
  5
12
330
9
100
AcDbSymbolTableRecord
100
AcDbRegAppTableRecord
  2
ACAD
 70
    0
  0
APPID
  5
53
330
9
100
AcDbSymbolTableRecord
100
AcDbRegAppTableRecord
  2
LibreCad
 70
    0
  0
ENDTAB
  0
TABLE
  2
DIMSTYLE
  5
A
330
0
100
AcDbSymbolTable
 70
    1
100
AcDbDimStyleTable
 71
    1
  0
DIMSTYLE
105
54
330
A
100
AcDbSymbolTableRecord
100
AcDbDimStyleTableRecord
  2
Standard
 70
    0
 40
1
 41
2.5
 42
0.625
 43
0.38
 44
1.25
 45
0
 46
0
 47
0
 48
0
 49
1
140
2.5
141
0.09
142
2.5
143
25.4
144
1
145
0
146
1
147
0.625
148
0
 71
    0
 72
    0
 73
    0
 74
    1
 75
    0
 76
    0
 77
    0
 78
    1
 79
    0
170
    0
171
    2
172
    0
173
    0
174
    0
175
    0
176
    0
177
    0
178
    0
179
    0
271
    2
272
    4
273
    2
274
    2
275
    0
276
    0
277
    2
278
    0
279
    0
280
    0
281
    0
282
    0
283
    1
284
    0
285
    0
286
    0
288
    0
289
    3
340
standard
341

371
   -2
372
   -2
  0
ENDTAB
  0
TABLE
  2
BLOCK_RECORD
  5
1
330
0
100
AcDbSymbolTable
 70
    2
  0
BLOCK_RECORD
  5
1F
330
1
100
AcDbSymbolTableRecord
100
AcDbBlockTableRecord
  2
*Model_Space
 70
    0
280
    1
281
    0
  0
BLOCK_RECORD
  5
1E
330
1
100
AcDbSymbolTableRecord
100
AcDbBlockTableRecord
  2
*Paper_Space
 70
    0
280
    1
281
    0
  0
ENDTAB
  0
ENDSEC
  0
SECTION
  2
BLOCKS
  0
BLOCK
  5
20
330
1F
100
AcDbEntity
  8
0
100
AcDbBlockBegin
  2
*Model_Space
 70
    0
 10
0
 20
0
 30
0
  3
*Model_Space
  1

  0
ENDBLK
  5
21
330
1F
100
AcDbEntity
  8
0
100
AcDbBlockEnd
  0
BLOCK
  5
1C
330
1B
100
AcDbEntity
  8
0
100
AcDbBlockBegin
  2
*Paper_Space
 70
    0
 10
0
 20
0
 30
0
  3
*Paper_Space
  1

  0
ENDBLK
  5
1D
330
1F
100
AcDbEntity
  8
0
100
AcDbBlockEnd
  0
ENDSEC
  0
SECTION
  2
ENTITIES
  0
LWPOLYLINE
  5
55
100
AcDbEntity
  8
CURRENT_BED
  6
ByLayer
 62
    8
370
   -1
100
AcDbPolyline
 90
  166
 70
    0
 43
0
 10
0
 20
27.98
 10
16.920190665
 20
28.02
 10
28.463996293
 20
17.9
 10
58.113971916
 20
16.4
 10
76.05474431099999
 20
11.2
 10
87.247070197
 20
9.56
 10
89.247031447
 20
8.85
 10
91.246836687
 20
8.369999999999999
 10
93.246797937
 20
8.119999999999999
 10
95.24675918699999
 20
7.78
 10
97.246720436
 20
7.43
 10
99.24730635
 20
7.26
 10
101.2472676
 20
7.13
 10
103.24722885
 20
6.84
 10
105.246409182
 20
6.31
 10
107.246995096
 20
6.012
 10
109.246956346
 20
5.883
 10
111.246917595
 20
5.394
 10
113.246878845
 20
4.945
 10
115.247464759
 20
4.496
 10
117.246645091
 20
4.047
 10
119.246606341
 20
3.804
 10
121.24656759
 20
4.058
 10
123.247153504
 20
3.5
 10
125.247114754
 20
2.52
 10
127.247076004
 20
1.99
 10
129.246256336
 20
2.26
 10
131.24684225
 20
2.326
 10
133.2468035
 20
1.922
 10
135.246764749
 20
1.518
 10
137.246725999
 20
1.044
 10
139.247311913
 20
1.147
 10
141.247273163
 20
1.015
 10
143.246453495
 20
0.994
 10
145.247039409
 20
0.972
 10
147.247000659
 20
0.951
 10
149.246961908
 20
0.93
 10
151.246923158
 20
0.909
 10
153.247509072
 20
0.888
 10
155.246689404
 20
0.867
 10
157.246650654
 20
0.846
 10
159.246611903
 20
0.825
 10
161.247197817
 20
0.696
 10
163.247159067
 20
0.651
 10
165.247120317
 20
0.612
 10
167.246300649
 20
0.665
 10
169.246886563
 20
0.638
 10
171.246847813
 20
0.618
 10
173.246809062
 20
0.655
 10
175.246770312
 20
0.656
 10
177.247356226
 20
0.658
 10
179.247317476
 20
0.659
 10
181.246497808
 20
0.66
 10
183.246459057
 20
0.627
 10
185.247044971
 20
0.595
 10
187.247006221
 20
0.571
 10
189.246967471
 20
0.547
 10
191.247553385
 20
0.523
 10
193.246733717
 20
0.499
 10
195.246694966
 20
0.475
 10
197.246656216
 20
0.458
 10
199.24724213
 20
0.15
 10
201.24720338
 20
-0.26
 10
203.24716463
 20
-0.85
 10
205.246344961
 20
-1.22
 10
207.246930876
 20
-1.809
 10
209.246892125
 20
-1.6
 10
211.246853375
 20
-1.32
 10
213.246814624
 20
-0.45
 10
215.247400539
 20
0.12
 10
217.247361788
 20
0.34
 10
219.24654212
 20
0.39
 10
221.24650337
 20
0.41
 10
223.247089284
 20
0.962
 10
225.247050534
 20
0.945
 10
227.247011783
 20
0.728
 10
229.246973033
 20
0.754
 10
231.246778274
 20
0.72
 10
233.246739523
 20
1.068
 10
235.246700773
 20
0.405
 10
237.246662023
 20
1.518
 10
239.247247937
 20
1.612
 10
241.247209186
 20
1.652
 10
243.246389518
 20
1.848
 10
245.246975432
 20
1.777
 10
247.246936682
 20
1.637
 10
249.246897932
 20
1.586
 10
251.246859181
 20
1.534
 10
253.247445095
 20
1.483
 10
255.247406345
 20
1.432
 10
257.246586677
 20
1.381
 10
259.246547927
 20
1.351
 10
261.247133841
 20
1.202
 10
263.247095091
 20
0.952
 10
265.24705634
 20
0.708
 10
267.24701759
 20
0.482
 10
269.24682283
 20
0.527
 10
271.24678408
 20
0.364
 10
273.24674533
 20
0.395
 10
275.246706579
 20
0.444
 10
277.247292494
 20
0.486
 10
279.247253743
 20
0.528
 10
281.246434075
 20
0.57
 10
283.246395325
 20
0.619
 10
285.246981239
 20
0.648
 10
287.246942489
 20
0.642
 10
289.246903738
 20
0.636
 10
291.246864988
 20
0.631
 10
293.247450902
 20
0.625
 10
295.246631234
 20
0.619
 10
297.246592484
 20
0.613
 10
299.247178398
 20
0.65
 10
301.247139648
 20
0.6840000000000001
 10
303.247100897
 20
0.741
 10
305.247062147
 20
0.783
 10
307.246867387
 20
0.737
 10
309.246828637
 20
0.743
 10
311.246789886
 20
0.707
 10
313.246751136
 20
0.6899999999999999
 10
315.24733705
 20
0.676
 10
317.2472983
 20
0.727
 10
319.246478632
 20
0.843
 10
321.246439882
 20
0.917
 10
323.247025796
 20
0.931
 10
325.246987045
 20
1.122
 10
327.246948295
 20
1.364
 10
329.246909545
 20
1.539
 10
331.247495459
 20
2.023
 10
333.246675791
 20
2.507
 10
335.24663704
 20
2.866
 10
337.24659829
 20
3.079
 10
339.247184204
 20
3.493
 10
341.247145454
 20
4.424
 10
343.247106703
 20
4.717
 10
345.246287036
 20
4.982
 10
347.24687295
 20
5.104
 10
349.246834199
 20
5.215
 10
351.246795449
 20
5.322
 10
353.247381363
 20
5.636
 10
355.247342613
 20
5.457
 10
357.246522945
 20
5.173
 10
359.246484194
 20
5.51
 10
361.247070108
 20
6.029
 10
363.247031358
 20
6.548
 10
365.246992608
 20
6.98
 10
367.246953857
 20
7.439
 10
369.247539771
 20
7.94
 10
371.246720104
 20
8.279
 10
373.246681353
 20
8.749000000000001
 10
375.246642603
 20
9.23
 10
377.247228517
 20
9.718999999999999
 10
379.247189767
 20
10.219
 10
381.247151016
 20
10.745
 10
383.246331348
 20
11.296
 10
385.246917263
 20
11.83
 10
387.246878512
 20
12.337
 10
398.067835631
 20
11.69
 10
412.504407092
 20
12.02
 10
427.84768156
 20
15.6
 10
450.404690266
 20
16.59
 10
472.844667483
 20
16.64
 10
490.059449411
 20
19.92
 10
499.791543623
 20
23.3
 10
510.535566272
 20
23.3
 10
514.492745489
 20
19.84
 10
531.643604399
 20
19.29
  0
LWPOLYLINE
  5
56
100
AcDbEntity
  8
DESIGN_CENTER
  6
ByLayer
 62
    1
370
   -1
100
AcDbPolyline
 90
  330
 70
    0
 43
0
 10
0
 20
27.98
 10
16.920190665
 20
28.02
 10
28.463996293
 20
17.9
 10
58.113971916
 20
16.4
 10
76.05474431099999
 20
11.2
 10
78
 20
11.57955548
 10
80
 20
11.987887007
 10
82
 20
12.338679168
 10
84
 20
12.592034547
 10
86
 20
12.733741576
 10
87.247070197
 20
12.766971005
 10
88
 20
12.610834827
 10
89.247031447
 20
12.322043372
 10
90
 20
12.21795097
 10
91.246836687
 20
12.020670478
 10
92
 20
11.975211162
 10
93.246797937
 20
11.880668059
 10
94
 20
11.780025225
 10
95.24675918699999
 20
11.599369599
 10
96
 20
11.479681994
 10
97.246720436
 20
11.271894467
 10
98
 20
11.209635877
 10
99.24730635
 20
11.100159541
 10
100
 20
11.04617452
 10
101.2472676
 20
10.952507096
 10
102
 20
10.833697553
 10
103.24722885
 20
10.633708295
 10
104
 20
10.420802503
 10
105.246409182
 20
10.065252602
 10
106
 20
9.935760181999999
 10
107.246995096
 20
9.717728212000001
 10
108
 20
9.646926404
 10
109.246956346
 20
9.524593305
 10
110
 20
9.311474129
 10
111.246917595
 20
8.951828195999999
 10
112
 20
8.744958906999999
 10
113.246878845
 20
8.394041316999999
 10
114
 20
8.176563948
 10
115.247464759
 20
7.806758
 10
116
 20
7.57763666
 10
117.246645091
 20
7.188423758
 10
118
 20
7.025535894
 10
119.246606341
 20
6.748083216
 10
120
 20
6.764285793
 10
121.24656759
 20
6.787644471
 10
122
 20
6.496623389
 10
123.247153504
 20
6.019662058
 10
124
 20
5.580217796
 10
125.247114754
 20
4.870058123
 10
126
 20
4.628120352
 10
127.247076004
 20
4.263999731
 10
127.291583188
 20
4.27
 10
128
 20
4.376671143
 10
129.246256336
 20
4.606585097
 10
130
 20
4.686567011
 10
131.24684225
 20
4.841320549
 10
132
 20
4.765410905
 10
133.2468035
 20
4.647403161
 10
134
 20
4.576776794
 10
135.246764749
 20
4.457838643
 10
136
 20
4.356023456
 10
137.246725999
 20
4.179819439
 10
138
 20
4.28485427
 10
139.247311913
 20
4.448424642
 10
140
 20
4.452122141
 10
141.247273163
 20
4.447309995
 10
142
 20
4.479783827
 10
143.246453495
 20
4.523347858
 10
144
 20
4.543650006
 10
145.247039409
 20
4.568465258
 10
146
 20
4.579166904
 10
147.247000659
 20
4.589843256
 10
148
 20
4.592698217
 10
149.246961908
 20
4.59211911
 10
150
 20
4.589173441
 10
151.246923158
 20
4.580562255
 10
152
 20
4.573625257
 10
153.247509072
 20
4.559716194
 10
154
 20
4.550272186
 10
155.246689404
 20
4.53324513
 10
156
 20
4.522429764
 10
157.246650654
 20
4.503911381
 10
158
 20
4.492557626
 10
159.246611903
 20
4.473671447
 10
160
 20
4.421664147
 10
161.247197817
 20
4.335796176
 10
162
 20
4.315782117
 10
163.247159067
 20
4.283028508
 10
164
 20
4.265790696
 10
165.247120317
 20
4.237706981
 10
166
 20
4.25568105
 10
167.246300649
 20
4.285902582
 10
168
 20
4.274293302
 10
169.246886563
 20
4.255509172
 10
170
 20
4.247026247
 10
171.246847813
 20
4.233335473
 10
172
 20
4.246716121
 10
173.246809062
 20
4.269145406
 10
174
 20
4.269277178
 10
175.246770312
 20
4.269700096
 10
176
 20
4.270429891
 10
177.247356226
 20
4.271776181
 10
178
 20
4.272272531
 10
179.247317476
 20
4.273173064
 10
180
 20
4.273743244
 10
181.246497808
 20
4.274712115
 10
182
 20
4.262484046
 10
183.246459057
 20
4.242231568
 10
184
 20
4.230335747
 10
185.247044971
 20
4.210576832
 10
186
 20
4.20159282
 10
187.247006221
 20
4.186592947
 10
188
 20
4.177443387
 10
189.246967471
 20
4.162119893
 10
190
 20
4.152745712
 10
191.247553385
 20
4.13699162
 10
192
 20
4.127329303
 10
193.246733717
 20
4.111046584
 10
194
 20
4.101030845
 10
195.246694966
 20
4.084140764
 10
196
 20
4.076372812
 10
197.246656216
 20
4.063184631
 10
198
 20
3.945439762
 10
199.24724213
 20
3.75018521
 10
200
 20
3.593747603
 10
201.24720338
 20
3.334316592
 10
202
 20
3.109884359
 10
203.24716463
 20
2.737990135
 10
204
 20
2.596309664
 10
205.246344961
 20
2.361955761
 10
206
 20
2.13811216
 10
207.246930876
 20
1.76838955
 10
208
 20
1.846103841
 10
209.246892125
 20
1.976008787
 10
210
 20
2.082233194
 10
211.246853375
 20
2.260122167
 10
212
 20
2.591335866
 10
213.246814624
 20
3.142656799
 10
214
 20
3.364891614
 10
215.247400539
 20
3.737094858
 10
216
 20
3.832972813
 10
217.247361788
 20
3.997233071
 10
218
 20
4.036045481
 10
219.24654212
 20
4.106800646
 10
220
 20
4.142514211
 10
221.24650337
 20
4.208884964
 10
222
 20
4.453903873
 10
223.247089284
 20
4.866877991
 10
224
 20
4.906303898
 10
225.247050534
 20
4.978103121
 10
226
 20
4.949238904
 10
227.247011783
 20
4.905302582
 10
228
 20
4.970920808
 10
229.246973033
 20
5.078472869
 10
230
 20
5.117371977
 10
231.246778274
 20
5.172602541
 10
232
 20
5.34012946
 10
233.246739523
 20
5.596399561
 10
233.855335041
 20
5.4
 10
234
 20
5.351747008
 10
235.246700773
 20
4.911850512
 10
236
 20
5.300262682
 10
237.246662023
 20
5.924012403
 10
238
 20
5.910100947
 10
239.247247937
 20
5.87927499
 10
240
 20
5.838735393
 10
241.247209186
 20
5.771348598
 10
242
 20
5.791199904
 10
243.246389518
 20
5.828442302
 10
244
 20
5.753990363
 10
245.246975432
 20
5.637524732
 10
246
 20
5.54563838
 10
247.246936682
 20
5.400965527
 10
248
 20
5.351571678
 10
249.246897932
 20
5.276990455
 10
250
 20
5.235615874
 10
251.246859181
 20
5.173441569
 10
252
 20
5.139665415
 10
253.247445095
 20
5.088900136
 10
254
 20
5.060935175
 10
255.247406345
 20
5.018553284
 10
256
 20
4.994940775
 10
257.246586677
 20
4.958679095
 10
258
 20
4.946031332
 10
259.246547927
 20
4.926999915
 10
260
 20
4.871526538
 10
261.247133841
 20
4.780837083
 10
262
 20
4.68850622
 10
263.247095091
 20
4.536121555
 10
264
 20
4.446556468
 10
265.24705634
 20
4.298364272
 10
266
 20
4.215654773
 10
267.24701759
 20
4.078571247
 10
268
 20
4.097706646
 10
269.24682283
 20
4.129145463
 10
270
 20
4.069626284
 10
271.24678408
 20
3.970790377
 10
272
 20
3.983951364
 10
273.24674533
 20
4.005418637
 10
274
 20
4.024985113
 10
275.246706579
 20
4.057079761
 10
276
 20
4.073672236
 10
277.247292494
 20
4.100901974
 10
278
 20
4.117212047
 10
279.247253743
 20
4.14404742
 10
280
 20
4.160154121
 10
281.246434075
 20
4.186685842
 10
282
 20
4.205291928
 10
283.246395325
 20
4.235974237
 10
284
 20
4.24694543
 10
285.246981239
 20
4.265045657
 10
286
 20
4.262780548
 10
287.246942489
 20
4.259005446
 10
288
 20
4.256719191
 10
289.246903738
 20
4.252929629
 10
290
 20
4.251019863
 10
291.246864988
 20
4.247865309
 10
292
 20
4.245590121
 10
293.247450902
 20
4.241831834
 10
294
 20
4.239567686
 10
295.246631234
 20
4.235821816
 10
296
 20
4.233557355
 10
297.246592484
 20
4.229801633
 10
298
 20
4.243713142
 10
299.247178398
 20
4.266711655
 10
300
 20
4.279440217
 10
301.247139648
 20
4.30046677
 10
302
 20
4.321768453
 10
303.247100897
 20
4.356957867
 10
304
 20
4.372481719
 10
305.247062147
 20
4.398056024
 10
306
 20
4.380265331
 10
307.246867387
 20
4.350621011
 10
308
 20
4.352171923
 10
309.246828637
 20
4.354515501
 10
310
 20
4.339966557
 10
311.246789886
 20
4.315628937
 10
312
 20
4.30792403
 10
313.246751136
 20
4.294911037
 10
314
 20
4.288032764
 10
315.24733705
 20
4.276416644
 10
316
 20
4.293761091
 10
317.2472983
 20
4.322371042
 10
318
 20
4.364095579
 10
319.246478632
 20
4.433234873
 10
320
 20
4.459314156
 10
321.246439882
 20
4.50278109
 10
322
 20
4.506796163
 10
323.247025796
 20
4.514186579
 10
324
 20
4.585943918
 10
325.246987045
 20
4.706095975
 10
326
 20
4.798912247
 10
327.246948295
 20
4.954656251
 10
328
 20
5.025040458
 10
329.246909545
 20
5.144502551
 10
330
 20
5.335076885
 10
331.247495459
 20
5.654657211
 10
332
 20
5.850280532
 10
333.246675791
 20
6.179232094
 10
334
 20
6.334119885
 10
335.24663704
 20
6.596119701
 10
336
 20
6.703092494
 10
337.24659829
 20
6.886217987
 10
338
 20
7.076221683
 10
339.247184204
 20
7.396595911
 10
340
 20
7.787727911
 10
341.247145454
 20
8.440119355
 10
342
 20
8.595440297
 10
343.247106703
 20
8.854097223
 10
344
 20
8.998770165
 10
345.246287036
 20
9.234338183
 10
346
 20
9.317661108999999
 10
347.24687295
 20
9.443475436
 10
348
 20
9.504019169999999
 10
348.858419066
 20
9.56
 10
349.246834199
 20
9.579595991
 10
350
 20
9.606893620999999
 10
351.246795449
 20
9.630561717999999
 10
352
 20
9.714232513000001
 10
353.247381363
 20
9.842442288000001
 10
354
 20
9.73124569
 10
355.247342613
 20
9.544500579999999
 10
356
 20
9.392891135999999
 10
357.246522945
 20
9.144513563
 10
358
 20
9.231287996000001
 10
359.246484194
 20
9.380584975
 10
360
 20
9.54345709
 10
361.247070108
 20
9.820211978
 10
362
 20
9.991900382000001
 10
363.247031358
 20
10.283789055
 10
364
 20
10.431706397
 10
365.246992608
 20
10.683770268
 10
366
 20
10.850099798
 10
367.246953857
 20
11.131664688
 10
368
 20
11.320667357
 10
369.247539771
 20
11.638529179
 10
370
 20
11.77163173
 10
371.246720104
 20
11.995130876
 10
372
 20
12.180454277
 10
373.246681353
 20
12.487911391
 10
374
 20
12.677290732
 10
375.246642603
 20
12.988667226
 10
376
 20
13.177330626
 10
377.247228517
 20
13.484225508
 10
378
 20
13.668851674
 10
379.247189767
 20
13.965135046
 10
380
 20
14.146171921
 10
381.247151016
 20
14.431604739
 10
382
 20
14.602635674
 10
383.246331348
 20
14.865877747
 10
384
 20
15.004354301
 10
385.246917263
 20
15.207947363
 10
386
 20
15.303424787
 10
387.246878512
 20
15.430977994
 10
388
 20
15.252189433
 10
390
 20
14.702616069
 10
392
 20
14.043498469
 10
394
 20
13.291299391
 10
396
 20
12.488473631
 10
398
 20
11.713589886
 10
398.067835631
 20
11.69
 10
412.504407092
 20
12.02
 10
427.84768156
 20
15.6
 10
450.404690266
 20
16.59
 10
472.844667483
 20
16.64
 10
490.059449411
 20
19.92
 10
499.791543623
 20
23.3
 10
510.535566272
 20
23.3
 10
514.492745489
 20
19.84
 10
531.643604399
 20
19.29
  0
LWPOLYLINE
  5
57
100
AcDbEntity
  8
DESIGN_LOCAL
  6
ByLayer
 62
    5
370
   -1
100
AcDbPolyline
 90
  319
 70
    0
 43
0
 10
0
 20
27.98
 10
16.920190665
 20
28.02
 10
28.463996293
 20
17.9
 10
58.113971916
 20
16.4
 10
76.05474431099999
 20
11.2
 10
87.247070197
 20
9.56
 10
88
 20
9.637169567000001
 10
89.247031447
 20
9.816851314999999
 10
90
 20
10.01069786
 10
91.246836687
 20
10.306275635
 10
92
 20
10.54069566
 10
93.246797937
 20
10.868565939
 10
94
 20
10.992193751
 10
95.24675918699999
 20
11.129115805
 10
96
 20
11.169352936
 10
97.246720436
 20
11.175761515
 10
98
 20
11.216141386
 10
99.24730635
 20
11.236670475
 10
100
 20
11.241793074
 10
101.2472676
 20
11.218719179
 10
102
 20
11.130484439
 10
103.24722885
 20
10.965285507
 10
104
 20
10.767366879
 10
105.246409182
 20
10.429689072
 10
106
 20
10.309235081
 10
107.246995096
 20
10.105089533
 10
108
 20
10.043311673
 10
109.246956346
 20
9.937722219999999
 10
110
 20
9.736023618999999
 10
111.246917595
 20
9.3971959
 10
112
 20
9.20333827
 10
113.246878845
 20
8.873577182
 10
114
 20
8.66717498
 10
115.247464759
 20
8.311152680999999
 10
116
 20
8.085662588
 10
117.246645091
 20
7.692735907
 10
118
 20
7.519823437
 10
119.246606341
 20
7.211338912
 10
120
 20
7.199004868
 10
121.24656759
 20
7.158798014
 10
122
 20
6.820466317
 10
123.247153504
 20
6.253110352
 10
124
 20
5.756419321
 10
125.247114754
 20
4.954138636
 10
126
 20
4.668245631
 10
127.247076004
 20
4.264027582
 10
127.291583188
 20
4.27
 10
128
 20
4.389493783
 10
129.246256336
 20
4.68578522
 10
130
 20
4.81843604
 10
131.24684225
 20
5.069836723
 10
132
 20
5.049985711
 10
133.2468035
 20
5.015429472
 10
134
 20
4.98628181
 10
135.246764749
 20
4.919595293
 10
136
 20
4.839174386
 10
137.246725999
 20
4.682185883
 10
138
 20
4.790357235
 10
139.247311913
 20
4.946746684
 10
140
 20
4.940496596
 10
141.247273163
 20
4.911745042
 10
142
 20
4.927031291
 10
143.246453495
 20
4.939172229
 10
144
 20
4.940043946
 10
145.247039409
 20
4.93310069
 10
146
 20
4.925733294
 10
147.247000659
 20
4.908953937
 10
148
 20
4.897141732
 10
149.246961908
 20
4.875679601
 10
150
 20
4.862260082
 10
151.246923158
 20
4.839804364
 10
152
 20
4.826479418
 10
153.247509072
 20
4.80505301
 10
154
 20
4.792669595
 10
155.246689404
 20
4.773138971
 10
156
 20
4.761955773
 10
157.246650654
 20
4.744444496
 10
158
 20
4.73441095
 10
159.246611903
 20
4.718644914
 10
160
 20
4.668872853
 10
161.247197817
 20
4.587097323
 10
162
 20
4.569633146
 10
163.247159067
 20
4.541107845
 10
164
 20
4.52632426
 10
165.247120317
 20
4.50206753
 10
166
 20
4.522154474
 10
167.246300649
 20
4.55551228
 10
168
 20
4.545562928
 10
169.246886563
 20
4.529127927
 10
170
 20
4.521829776
 10
171.246847813
 20
4.509726353
 10
172
 20
4.523859373
 10
173.246809062
 20
4.54721581
 10
174
 20
4.547741475
 10
175.246770312
 20
4.548568654
 10
176
 20
4.54942086
 10
177.247356226
 20
4.550795638
 10
178
 20
4.551230985
 10
179.247317476
 20
4.551926791
 10
180
 20
4.552335828
 10
181.246497808
 20
4.552999508
 10
182
 20
4.540586827
 10
183.246459057
 20
4.520051093
 10
184
 20
4.508019177
 10
185.247044971
 20
4.488114615
 10
186
 20
4.479111771
 10
187.247006221
 20
4.464215986
 10
188
 20
4.455231472
 10
189.246967471
 20
4.44037048
 10
190
 20
4.431408972
 10
191.247553385
 20
4.416577234
 10
192
 20
4.407630739
 10
193.246733717
 20
4.392810657
 10
194
 20
4.383854174
 10
195.246694966
 20
4.369010356
 10
196
 20
4.362651655
 10
197.246656216
 20
4.352068232
 10
198
 20
4.236038164
 10
199.24724213
 20
4.043818797
 10
200
 20
3.889279946
 10
201.24720338
 20
3.633037384
 10
202
 20
3.410468752
 10
203.24716463
 20
3.041454534
 10
204
 20
2.901260129
 10
205.246344961
 20
2.668800753
 10
206
 20
2.44559185
 10
207.246930876
 20
2.075886648
 10
208
 20
2.152784955
 10
209.246892125
 20
2.279757055
 10
210
 20
2.383035656
 10
211.246853375
 20
2.553888611
 10
212
 20
2.879345482
 10
213.246814624
 20
3.418465628
 10
214
 20
3.631577544
 10
215.247400539
 20
3.985684388
 10
216
 20
4.068825614
 10
217.247361788
 20
4.20903224
 10
218
 20
4.231723338
 10
219.24654212
 20
4.27339862
 10
220
 20
4.290500179
 10
221.24650337
 20
4.324896312
 10
222
 20
4.550522307
 10
223.247089284
 20
4.932047797
 10
224
 20
4.953715469
 10
225.247050534
 20
4.999003994
 10
226
 20
4.956739148
 10
227.247011783
 20
4.895667049
 10
228
 20
4.954548642
 10
229.246973033
 20
5.05714783
 10
230
 20
5.09659288
 10
231.246778274
 20
5.157755805
 10
232
 20
5.330344538
 10
233.246739523
 20
5.594959862
 10
233.855335041
 20
5.4
 10
234
 20
5.351674726
 10
235.246700773
 20
4.905198299
 10
236
 20
5.288464748
 10
237.246662023
 20
5.904702781
 10
238
 20
5.888819307
 10
239.247247937
 20
5.860138105
 10
240
 20
5.824624929
 10
241.247209186
 20
5.771718119
 10
242
 20
5.803597656
 10
243.246389518
 20
5.865536861
 10
244
 20
5.808092404
 10
245.246975432
 20
5.722337612
 10
246
 20
5.649687813
 10
247.246936682
 20
5.537219062
 10
248
 20
5.506783844
 10
249.246897932
 20
5.462196672
 10
250
 20
5.437632681
 10
251.246859181
 20
5.400791668
 10
252
 20
5.380588912
 10
253.247445095
 20
5.34932667
 10
254
 20
5.331310175
 10
255.247406345
 20
5.302460102
 10
256
 20
5.28534317
 10
257.246586677
 20
5.257237669
 10
258
 20
5.248138054
 10
259.246547927
 20
5.232901356
 10
260
 20
5.178685297
 10
261.247133841
 20
5.088577352
 10
262
 20
4.995900831
 10
263.247095091
 20
4.84198358
 10
264
 20
4.751090563
 10
265.24705634
 20
4.600188878
 10
266
 20
4.515671607
 10
267.24701759
 20
4.375424512
 10
268
 20
4.392641761
 10
269.24682283
 20
4.420966724
 10
270
 20
4.359661723
 10
271.24678408
 20
4.258069202
 10
272
 20
4.269713388
 10
273.24674533
 20
4.288932357
 10
274
 20
4.307305445
 10
275.246706579
 20
4.337696799
 10
276
 20
4.353416832
 10
277.247292494
 20
4.379449611
 10
278
 20
4.395171373
 10
279.247253743
 20
4.421236682
 10
280
 20
4.436983723
 10
281.246434075
 20
4.463075171
 10
282
 20
4.481490573
 10
283.246395325
 20
4.511964853
 10
284
 20
4.522858866
 10
285.246981239
 20
4.540897026
 10
286
 20
4.538620941
 10
287.246942489
 20
4.534860239
 10
288
 20
4.532592885
 10
289.246903738
 20
4.528843936
 10
290
 20
4.52695862
 10
291.246864988
 20
4.523840578
 10
292
 20
4.521583048
 10
293.247450902
 20
4.517846537
 10
294
 20
4.515592626
 10
295.246631234
 20
4.511862276
 10
296
 20
4.509611434
 10
297.246592484
 20
4.505892071
 10
298
 20
4.519842394
 10
299.247178398
 20
4.542943121
 10
300
 20
4.555767879
 10
301.247139648
 20
4.577023869
 10
302
 20
4.598520495
 10
303.247100897
 20
4.634141309
 10
304
 20
4.650006688
 10
305.247062147
 20
4.676296583
 10
306
 20
4.659043636
 10
307.246867387
 20
4.630478708
 10
308
 20
4.632807601
 10
309.246828637
 20
4.636656423
 10
310
 20
4.623152565
 10
311.246789886
 20
4.60076858
 10
312
 20
4.594370924
 10
313.246751136
 20
4.583715106
 10
314
 20
4.578350819
 10
315.24733705
 20
4.569351459
 10
316
 20
4.588288591
 10
317.2472983
 20
4.619492895
 10
318
 20
4.662671998
 10
319.246478632
 20
4.733935214
 10
320
 20
4.761007427
 10
321.246439882
 20
4.805499447
 10
322
 20
4.809608612
 10
323.247025796
 20
4.816118312
 10
324
 20
4.88654077
 10
325.246987045
 20
5.002969106
 10
326
 20
5.092438816
 10
327.246948295
 20
5.240646982
 10
328
 20
5.305114786
 10
329.246909545
 20
5.412386464
 10
330
 20
5.594055654
 10
331.247495459
 20
5.896283966
 10
332
 20
6.079889021
 10
333.246675791
 20
6.386454626
 10
334
 20
6.526497946
 10
335.24663704
 20
6.762027021
 10
336
 20
6.85222539
 10
337.24659829
 20
7.006779108
 10
338
 20
7.179586545
 10
339.247184204
 20
7.472248294
 10
340
 20
7.847793284
 10
341.247145454
 20
8.476938150000001
 10
342
 20
8.62042705
 10
343.247106703
 20
8.863651972
 10
344
 20
9.001860551
 10
345.246287036
 20
9.231478956
 10
346
 20
9.313727839
 10
347.24687295
 20
9.441073228
 10
348
 20
9.503074641
 10
348.858419066
 20
9.56
 10
349.246834199
 20
9.57915622
 10
350
 20
9.604597384
 10
351.246795449
 20
9.624854257999999
 10
352
 20
9.708096116
 10
353.247381363
 20
9.839503638
 10
354
 20
9.733242262999999
 10
355.247342613
 20
9.559889715000001
 10
356
 20
9.419402619
 10
357.246522945
 20
9.194162104
 10
358
 20
9.297305223
 10
359.246484194
 20
9.477087702
 10
360
 20
9.659882214
 10
361.247070108
 20
9.971522577
 10
362
 20
10.164887294
 10
363.247031358
 20
10.493162598
 10
364
 20
10.662806482
 10
365.246992608
 20
10.949860151
 10
366
 20
11.136046302
 10
367.246953857
 20
11.447555147
 10
368
 20
11.651830202
 10
369.247539771
 20
11.989007898
 10
370
 20
12.12848847
 10
371.246720104
 20
12.351751516
 10
372
 20
12.527885183
 10
373.246681353
 20
12.802175789
 10
374
 20
12.957220205
 10
375.246642603
 20
13.184295233
 10
376
 20
13.301282574
 10
377.247228517
 20
13.450995688
 10
378
 20
13.513489984
 10
379.247189767
 20
13.558877077
 10
380
 20
13.556822694
 10
381.247151016
 20
13.486014434
 10
382
 20
13.412025437
 10
383.246331348
 20
13.225680008
 10
384
 20
13.075859588
 10
385.246917263
 20
12.791573868
 10
386
 20
12.609222747
 10
387.246878512
 20
12.337
 10
398.067835631
 20
11.69
 10
412.504407092
 20
12.02
 10
427.84768156
 20
15.6
 10
450.404690266
 20
16.59
 10
472.844667483
 20
16.64
 10
490.059449411
 20
19.92
 10
499.791543623
 20
23.3
 10
510.535566272
 20
23.3
 10
514.492745489
 20
19.84
 10
531.643604399
 20
19.29
  0
LWPOLYLINE
  5
58
100
AcDbEntity
  8
DESIGN_DISTRIBUTED
  6
ByLayer
 62
    3
370
   -1
100
AcDbPolyline
 90
  353
 70
    0
 43
0
 10
0
 20
27.98
 10
16.920190665
 20
28.02
 10
28.463996293
 20
17.9
 10
58.113971916
 20
16.4
 10
60
 20
16.219159434
 10
62
 20
16.04509849
 10
64
 20
15.864794327
 10
66
 20
15.661101813
 10
68
 20
15.422922964
 10
70
 20
15.144003775
 10
72
 20
14.821841392
 10
74
 20
14.456721668
 10
76
 20
14.050895087
 10
76.05474431099999
 20
14.039263985
 10
78
 20
13.886723695
 10
80
 20
13.697406523
 10
82
 20
13.479688103
 10
84
 20
13.238054116
 10
86
 20
12.976701316
 10
87.247070197
 20
12.805652402
 10
88
 20
12.542790217
 10
89.247031447
 20
12.103439075
 10
90
 20
11.922641666
 10
91.246836687
 20
11.620075742
 10
92
 20
11.522257481
 10
93.246797937
 20
11.357754631
 10
94
 20
11.223101008
 10
95.24675918699999
 20
10.998065482
 10
96
 20
10.857153145
 10
97.246720436
 20
10.622033926
 10
98
 20
10.546698158
 10
99.24730635
 20
10.420173122
 10
100
 20
10.357783556
 10
101.2472676
 20
10.252608416
 10
102
 20
10.12780223
 10
103.24722885
 20
9.919119474
 10
104
 20
9.701564751999999
 10
105.246409182
 20
9.339319398000001
 10
106
 20
9.20655215
 10
107.246995096
 20
8.984686036999999
 10
108
 20
8.912955296
 10
109.246956346
 20
8.791910681999999
 10
110
 20
8.581892870000001
 10
111.246917595
 20
8.231898461
 10
112
 20
8.034286161000001
 10
113.246878845
 20
7.705059031
 10
114
 20
7.505172621
 10
115.247464759
 20
7.172490167
 10
116
 20
6.970986761
 10
117.246645091
 20
6.636367708
 10
118
 20
6.511746158
 10
119.246606341
 20
6.305915692
 10
120
 20
6.369576344
 10
121.24656759
 20
6.476993845
 10
122
 20
6.238159835
 10
123.247153504
 20
5.847193956
 10
124
 20
5.455970035
 10
125.247114754
 20
4.815224536
 10
126
 20
4.603567413
 10
127.247076004
 20
4.263997473
 10
127.291583188
 20
4.27
 10
128
 20
4.368495041
 10
129.246256336
 20
4.553695183
 10
130
 20
4.594598374
 10
131.24684225
 20
4.670483457
 10
132
 20
4.543028968
 10
133.2468035
 20
4.337016152
 10
134
 20
4.214565065
 10
135.246764749
 20
4.014299915
 10
136
 20
3.867642667
 10
137.246725999
 20
3.625391184
 10
138
 20
3.69606627
 10
139.247311913
 20
3.812176153
 10
140
 20
3.792868654
 10
141.247273163
 20
3.758995771
 10
142
 20
3.778946959
 10
143.246453495
 20
3.809511892
 10
144
 20
3.825990132
 10
145.247039409
 20
3.850476269
 10
146
 20
3.863908718
 10
147.247000659
 20
3.88328422
 10
148
 20
3.89326925
 10
149.246961908
 20
3.90700725
 10
150
 20
3.91367767
 10
151.246923158
 20
3.922109644
 10
152
 20
3.925718201
 10
153.247509072
 20
3.929333878
 10
154
 20
3.930192466
 10
155.246689404
 20
3.92954524
 10
156
 20
3.9280193
 10
157.246650654
 20
3.92372368
 10
158
 20
3.920169236
 10
159.246611903
 20
3.912809251
 10
160
 20
3.866903262
 10
161.247197817
 20
3.789699788
 10
162
 20
3.774067384
 10
163.247159067
 20
3.747202805
 10
164
 20
3.732741746
 10
165.247120317
 20
3.708026876
 10
166
 20
3.727356206
 10
167.246300649
 20
3.758766306
 10
168
 20
3.747306959
 10
169.246886563
 20
3.727898049
 10
170
 20
3.718577203
 10
171.246847813
 20
3.702799828
 10
172
 20
3.714556864
 10
173.246809062
 20
3.733751874
 10
174
 20
3.731649995
 10
175.246770312
 20
3.727958166
 10
176
 20
3.725991618
 10
177.247356226
 20
3.722562328
 10
178
 20
3.720024978
 10
179.247317476
 20
3.715678756
 10
180
 20
3.712982147
 10
181.246497808
 20
3.708405611
 10
182
 20
3.692775385
 10
183.246459057
 20
3.666846006
 10
184
 20
3.651524953
 10
185.247044971
 20
3.626148962
 10
186
 20
3.613849341
 10
187.247006221
 20
3.593534873
 10
188
 20
3.581340086
 10
189.246967471
 20
3.561309992
 10
190
 20
3.549369499
 10
191.247553385
 20
3.529902622
 10
192
 20
3.518416158
 10
193.246733717
 20
3.499897724
 10
194
 20
3.489114782
 10
195.246694966
 20
3.472037111
 10
196
 20
3.464933687
 10
197.246656216
 20
3.454262749
 10
198
 20
3.339030942
 10
199.24724213
 20
3.149717822
 10
200
 20
2.998079367
 10
201.24720338
 20
2.748746111
 10
202
 20
2.531835248
 10
203.24716463
 20
2.174886076
 10
204
 20
2.043834718
 10
205.246344961
 20
1.829827331
 10
206
 20
1.62001712
 10
207.246930876
 20
1.276413535
 10
208
 20
1.371657483
 10
209.246892125
 20
1.533457454
 10
210
 20
1.660599485
 10
211.246853375
 20
1.875726495
 10
212
 20
2.230823294
 10
213.246814624
 20
2.823740095
 10
214
 20
3.072042669
 10
215.247400539
 20
3.488611537
 10
216
 20
3.611551902
 10
217.247361788
 20
3.820674098
 10
218
 20
3.886028784
 10
219.24654212
 20
3.999301401
 10
220
 20
4.059240851
 10
221.24650337
 20
4.162644464
 10
222
 20
4.42760844
 10
223.247089284
 20
4.868994517
 10
224
 20
4.92230796
 10
225.247050534
 20
5.011323018
 10
226
 20
4.989127399
 10
227.247011783
 20
4.95003569
 10
228
 20
5.015048685
 10
229.246973033
 20
5.116274584
 10
230
 20
5.149012889
 10
231.246778274
 20
5.191464009
 10
232
 20
5.351469926
 10
233.246739523
 20
5.597900459
 10
233.855335041
 20
5.4
 10
234
 20
5.351827888
 10
235.246700773
 20
4.919127076
 10
236
 20
5.314436557
 10
237.246662023
 20
5.951289469
 10
238
 20
5.944325732
 10
239.247247937
 20
5.921888609
 10
240
 20
5.883474165
 10
241.247209186
 20
5.81405982
 10
242
 20
5.828992382
 10
243.246389518
 20
5.851896404
 10
244
 20
5.765175603
 10
245.246975432
 20
5.622765187
 10
246
 20
5.512249646
 10
247.246936682
 20
5.332353042
 10
248
 20
5.259629373
 10
249.246897932
 20
5.143619286
 10
250
 20
5.076139402
 10
251.246859181
 20
4.969537162
 10
252
 20
4.908748341
 10
253.247445095
 20
4.813453413
 10
254
 20
4.759203638
 10
255.247406345
 20
4.674604153
 10
256
 20
4.626666359
 10
257.246586677
 20
4.552278747
 10
258
 20
4.518107886
 10
259.246547927
 20
4.466133499
 10
260
 20
4.39246159
 10
261.247133841
 20
4.274539742
 10
262
 20
4.167524083
 10
263.247095091
 20
3.993695354
 10
264
 20
3.892864928
 10
265.24705634
 20
3.728714082
 10
266
 20
3.637893963
 10
267.24701759
 20
3.489781617
 10
268
 20
3.503575081
 10
269.24682283
 20
3.528208385
 10
270
 20
3.465664
 10
271.24678408
 20
3.363470074
 10
272
 20
3.375452312
 10
273.24674533
 20
3.396232073
 10
274
 20
3.416008317
 10
275.246706579
 20
3.44935317
 10
276
 20
3.467122495
 10
277.247292494
 20
3.496882965
 10
278
 20
3.514964418
 10
279.247253743
 20
3.545041586
 10
280
 20
3.563200917
 10
281.246434075
 20
3.59321076
 10
282
 20
3.613896429
 10
283.246395325
 20
3.647917229
 10
284
 20
3.660791202
 10
285.246981239
 20
3.681801287
 10
286
 20
3.681109594
 10
287.246942489
 20
3.679602708
 10
288
 20
3.67845613
 10
289.246903738
 20
3.676152086
 10
290
 20
3.674882307
 10
291.246864988
 20
3.672352242
 10
292
 20
3.670187517
 10
293.247450902
 20
3.666171502
 10
294
 20
3.663492486
 10
295.246631234
 20
3.658641406
 10
296
 20
3.655473168
 10
297.246592484
 20
3.649853955
 10
298
 20
3.662444686
 10
299.247178398
 20
3.682968556
 10
300
 20
3.694069462
 10
301.247139648
 20
3.712224397
 10
302
 20
3.731740289
 10
303.247100897
 20
3.763945708
 10
304
 20
3.777720685
 10
305.247062147
 20
3.800561409
 10
306
 20
3.781302678
 10
307.246867387
 20
3.749621151
 10
308
 20
3.750279189
 10
309.246828637
 20
3.751810785
 10
310
 20
3.737288176
 10
311.246789886
 20
3.713970334
 10
312
 20
3.707597409
 10
313.246751136
 20
3.698104227
 10
314
 20
3.69427978
 10
315.24733705
 20
3.689389594
 10
316
 20
3.711930661
 10
317.2472983
 20
3.751164593
 10
318
 20
3.800633574
 10
319.246478632
 20
3.884911655
 10
320
 20
3.921634495
 10
321.246439882
 20
3.985247723
 10
322
 20
4.003027628
 10
323.247025796
 20
4.03584056
 10
324
 20
4.124531878
 10
325.246987045
 20
4.275299439
 10
326
 20
4.388063694
 10
327.246948295
 20
4.579119512
 10
328
 20
4.672017227
 10
329.246909545
 20
4.830484405
 10
330
 20
5.045366318
 10
331.247495459
 20
5.406108705
 10
332
 20
5.626705777
 10
333.246675791
 20
5.996829372
 10
334
 20
6.175992565
 10
335.24663704
 20
6.476657461
 10
336
 20
6.605560182
 10
337.24659829
 20
6.822076607
 10
338
 20
7.030009798
 10
339.247184204
 20
7.375889121
 10
340
 20
7.779523248
 10
341.247145454
 20
8.447576491
 10
342
 20
8.609190963
 10
343.247106703
 20
8.873120276
 10
344
 20
9.018176628999999
 10
345.246287036
 20
9.250341946000001
 10
346
 20
9.330078174000001
 10
347.24687295
 20
9.448715439000001
 10
348
 20
9.505858568000001
 10
348.858419066
 20
9.56
 10
349.246834199
 20
9.580027818
 10
350
 20
9.609932797000001
 10
351.246795449
 20
9.640645066999999
 10
352
 20
9.72826235
 10
353.247381363
 20
9.860952699
 10
354
 20
9.750066283000001
 10
355.247342613
 20
9.559051894
 10
356
 20
9.401466276000001
 10
357.246522945
 20
9.13729691
 10
358
 20
9.210910928000001
 10
359.246484194
 20
9.332570892
 10
360
 20
9.475441712
 10
361.247070108
 20
9.713989187999999
 10
362
 20
9.859952242
 10
363.247031358
 20
10.105304738
 10
364
 20
10.22325799
 10
365.246992608
 20
10.423136616
 10
366
 20
10.556948382
 10
367.246953857
 20
10.783553329
 10
368
 20
10.939259411
 10
369.247539771
 20
11.202370258
 10
370
 20
11.303307485
 10
371.246720104
 20
11.475584674
 10
372
 20
11.631913263
 10
373.246681353
 20
11.895388699
 10
374
 20
12.061463784
 10
375.246642603
 20
12.340641644
 10
376
 20
12.514757467
 10
377.247228517
 20
12.80688871
 10
378
 20
12.989547318
 10
379.247189767
 20
13.295528788
 10
380
 20
13.491829462
 10
381.247151016
 20
13.819846248
 10
382
 20
14.028837504
 10
383.246331348
 20
14.377075896
 10
384
 20
14.582260157
 10
385.246917263
 20
14.923417953
 10
386
 20
15.120155322
 10
387.246878512
 20
15.446985082
 10
388
 20
15.408866017
 10
390
 20
15.308646777
 10
392
 20
15.207687072
 10
394
 20
15.103536334
 10
396
 20
14.993442129
 10
398
 20
14.874300784
 10
398.067835631
 20
14.870040024
 10
400
 20
14.902260045
 10
402
 20
14.919488987
 10
404
 20
14.916104743
 10
406
 20
14.88764157
 10
408
 20
14.829537872
 10
410
 20
14.737373584
 10
412
 20
14.607202396
 10
412.504407092
 20
14.567892615
 10
414
 20
14.750569382
 10
416
 20
14.957688438
 10
418
 20
15.122889407
 10
420
 20
15.249788255
 10
422
 20
15.345968726
 10
424
 20
15.424069567
 10
426
 20
15.502970033
 10
427.84768156
 20
15.6
 10
450.404690266
 20
16.59
 10
472.844667483
 20
16.64
 10
490.059449411
 20
19.92
 10
499.791543623
 20
23.3
 10
510.535566272
 20
23.3
 10
514.492745489
 20
19.84
 10
531.643604399
 20
19.29
  0
LINE
  5
59
100
AcDbEntity
  8
WSE_22_190
  6
ByLayer
 62
    4
370
   -1
100
AcDbLine
 10
0
 20
22.19
 11
531.643604399
 21
22.19
  0
CIRCLE
  5
5A
100
AcDbEntity
  8
PIER_CONTROL
  6
ByLayer
 62
    6
370
   -1
100
AcDbCircle
 10
127.291583188
 20
4.27
 40
2.2
  0
TEXT
  5
5B
100
AcDbEntity
  8
ANNOTATION
  6
ByLayer
 62
    6
370
   -1
100
AcDbText
 10
130.291583188
 20
5.47
 30
0
 40
3.2
  1
15# Z=4.27m
 50
0
 41
1
 51
0
  7
STANDARD
 71
    0
210
0
220
0
230
1
100
AcDbText
  0
CIRCLE
  5
5C
100
AcDbEntity
  8
PIER_CONTROL
  6
ByLayer
 62
    6
370
   -1
100
AcDbCircle
 10
233.855335041
 20
5.4
 40
2.2
  0
TEXT
  5
5D
100
AcDbEntity
  8
ANNOTATION
  6
ByLayer
 62
    6
370
   -1
100
AcDbText
 10
236.855335041
 20
6.6
 30
0
 40
3.2
  1
16# Z=5.40m
 50
0
 41
1
 51
0
  7
STANDARD
 71
    0
210
0
220
0
230
1
100
AcDbText
  0
CIRCLE
  5
5E
100
AcDbEntity
  8
PIER_CONTROL
  6
ByLayer
 62
    6
370
   -1
100
AcDbCircle
 10
348.858419066
 20
9.56
 40
2.2
  0
TEXT
  5
5F
100
AcDbEntity
  8
ANNOTATION
  6
ByLayer
 62
    6
370
   -1
100
AcDbText
 10
351.858419066
 20
10.76
 30
0
 40
3.2
  1
17# Z=9.56m
 50
0
 41
1
 51
0
  7
STANDARD
 71
    0
210
0
220
0
230
1
100
AcDbText
  0
TEXT
  5
60
100
AcDbEntity
  8
ANNOTATION
  6
ByLayer
 62
    7
370
   -1
100
AcDbText
 10
0
 20
38.02
 30
0
 40
5
  1
赣江西支特大桥 桥下设计河床断面
 50
0
 41
1
 51
0
  7
STANDARD
 71
    0
210
0
220
0
230
1
100
AcDbText
  0
TEXT
  5
61
100
AcDbEntity
  8
ANNOTATION
  6
ByLayer
 62
    7
370
   -1
100
AcDbText
 10
0
 20
32.52
 30
0
 40
3
  1
横纵坐标单位:m；设计线为本项目约束重建成果，非原设计院完整设计河床线。
 50
0
 41
1
 51
0
  7
STANDARD
 71
    0
210
0
220
0
230
1
100
AcDbText
  0
TEXT
  5
62
100
AcDbEntity
  8
ANNOTATION
  6
ByLayer
 62
    4
370
   -1
100
AcDbText
 10
426.643604399
 20
23.59
 30
0
 40
3
  1
WSE=22.190m
 50
0
 41
1
 51
0
  7
STANDARD
 71
    0
210
0
220
0
230
1
100
AcDbText
  0
ENDSEC
  0
SECTION
  2
OBJECTS
  0
DICTIONARY
  5
C
330
0
100
AcDbDictionary
281
    1
  3
ACAD_GROUP
350
D
  0
DICTIONARY
  5
D
330
C
100
AcDbDictionary
281
    1
  0
PLOTSETTINGS
  5
63
100
AcDbPlotSettings
  6
1x1
 40
0
 41
0
 42
0
 43
0
  0
ENDSEC
  0
EOF
