  0
SECTION
  2
HEADER
  9
$ACADVER
  1
AC1015
  9
$DWGCODEPAGE
  3
ANSI_936
  9
$INSUNITS
 70
6
  9
$MEASUREMENT
 70
1
  9
$EXTMIN
 10
-18.000000
 20
-9.809000
 30
0.0
  9
$EXTMAX
 10
549.643604
 20
46.020000
 30
0.0
  0
ENDSEC
  0
SECTION
  2
TABLES
  0
TABLE
  2
LTYPE
 70
1
  0
LTYPE
  2
CONTINUOUS
 70
0
  3
Solid line
 72
65
 73
0
 40
0.0
  0
ENDTAB
  0
TABLE
  2
LAYER
 70
8
  0
LAYER
  2
CURRENT_BED
 70
0
 62
8
  6
CONTINUOUS
  0
LAYER
  2
DESIGN_CENTER
 70
0
 62
1
  6
CONTINUOUS
  0
LAYER
  2
DESIGN_LOCAL
 70
0
 62
5
  6
CONTINUOUS
  0
LAYER
  2
DESIGN_DISTRIBUTED
 70
0
 62
3
  6
CONTINUOUS
  0
LAYER
  2
PIER_CONTROL
 70
0
 62
6
  6
CONTINUOUS
  0
LAYER
  2
WSE_22_190
 70
0
 62
4
  6
CONTINUOUS
  0
LAYER
  2
ANNOTATION
 70
0
 62
7
  6
CONTINUOUS
  0
LAYER
  2
FRAME
 70
0
 62
8
  6
CONTINUOUS
  0
ENDTAB
  0
ENDSEC
  0
SECTION
  2
ENTITIES
  0
LWPOLYLINE
100
AcDbEntity
  8
CURRENT_BED
 62
8
100
AcDbPolyline
 90
166
 70
0
 10
0.000000000
 20
27.980000000
 10
16.920190665
 20
28.020000000
 10
28.463996293
 20
17.900000000
 10
58.113971916
 20
16.400000000
 10
76.054744311
 20
11.200000000
 10
87.247070197
 20
9.560000000
 10
89.247031447
 20
8.850000000
 10
91.246836687
 20
8.370000000
 10
93.246797937
 20
8.120000000
 10
95.246759187
 20
7.780000000
 10
97.246720436
 20
7.430000000
 10
99.247306350
 20
7.260000000
 10
101.247267600
 20
7.130000000
 10
103.247228850
 20
6.840000000
 10
105.246409182
 20
6.310000000
 10
107.246995096
 20
6.012000000
 10
109.246956346
 20
5.883000000
 10
111.246917595
 20
5.394000000
 10
113.246878845
 20
4.945000000
 10
115.247464759
 20
4.496000000
 10
117.246645091
 20
4.047000000
 10
119.246606341
 20
3.804000000
 10
121.246567590
 20
4.058000000
 10
123.247153504
 20
3.500000000
 10
125.247114754
 20
2.520000000
 10
127.247076004
 20
1.990000000
 10
129.246256336
 20
2.260000000
 10
131.246842250
 20
2.326000000
 10
133.246803500
 20
1.922000000
 10
135.246764749
 20
1.518000000
 10
137.246725999
 20
1.044000000
 10
139.247311913
 20
1.147000000
 10
141.247273163
 20
1.015000000
 10
143.246453495
 20
0.994000000
 10
145.247039409
 20
0.972000000
 10
147.247000659
 20
0.951000000
 10
149.246961908
 20
0.930000000
 10
151.246923158
 20
0.909000000
 10
153.247509072
 20
0.888000000
 10
155.246689404
 20
0.867000000
 10
157.246650654
 20
0.846000000
 10
159.246611903
 20
0.825000000
 10
161.247197817
 20
0.696000000
 10
163.247159067
 20
0.651000000
 10
165.247120317
 20
0.612000000
 10
167.246300649
 20
0.665000000
 10
169.246886563
 20
0.638000000
 10
171.246847813
 20
0.618000000
 10
173.246809062
 20
0.655000000
 10
175.246770312
 20
0.656000000
 10
177.247356226
 20
0.658000000
 10
179.247317476
 20
0.659000000
 10
181.246497808
 20
0.660000000
 10
183.246459057
 20
0.627000000
 10
185.247044971
 20
0.595000000
 10
187.247006221
 20
0.571000000
 10
189.246967471
 20
0.547000000
 10
191.247553385
 20
0.523000000
 10
193.246733717
 20
0.499000000
 10
195.246694966
 20
0.475000000
 10
197.246656216
 20
0.458000000
 10
199.247242130
 20
0.150000000
 10
201.247203380
 20
-0.260000000
 10
203.247164630
 20
-0.850000000
 10
205.246344961
 20
-1.220000000
 10
207.246930876
 20
-1.809000000
 10
209.246892125
 20
-1.600000000
 10
211.246853375
 20
-1.320000000
 10
213.246814624
 20
-0.450000000
 10
215.247400539
 20
0.120000000
 10
217.247361788
 20
0.340000000
 10
219.246542120
 20
0.390000000
 10
221.246503370
 20
0.410000000
 10
223.247089284
 20
0.962000000
 10
225.247050534
 20
0.945000000
 10
227.247011783
 20
0.728000000
 10
229.246973033
 20
0.754000000
 10
231.246778274
 20
0.720000000
 10
233.246739523
 20
1.068000000
 10
235.246700773
 20
0.405000000
 10
237.246662023
 20
1.518000000
 10
239.247247937
 20
1.612000000
 10
241.247209186
 20
1.652000000
 10
243.246389518
 20
1.848000000
 10
245.246975432
 20
1.777000000
 10
247.246936682
 20
1.637000000
 10
249.246897932
 20
1.586000000
 10
251.246859181
 20
1.534000000
 10
253.247445095
 20
1.483000000
 10
255.247406345
 20
1.432000000
 10
257.246586677
 20
1.381000000
 10
259.246547927
 20
1.351000000
 10
261.247133841
 20
1.202000000
 10
263.247095091
 20
0.952000000
 10
265.247056340
 20
0.708000000
 10
267.247017590
 20
0.482000000
 10
269.246822830
 20
0.527000000
 10
271.246784080
 20
0.364000000
 10
273.246745330
 20
0.395000000
 10
275.246706579
 20
0.444000000
 10
277.247292494
 20
0.486000000
 10
279.247253743
 20
0.528000000
 10
281.246434075
 20
0.570000000
 10
283.246395325
 20
0.619000000
 10
285.246981239
 20
0.648000000
 10
287.246942489
 20
0.642000000
 10
289.246903738
 20
0.636000000
 10
291.246864988
 20
0.631000000
 10
293.247450902
 20
0.625000000
 10
295.246631234
 20
0.619000000
 10
297.246592484
 20
0.613000000
 10
299.247178398
 20
0.650000000
 10
301.247139648
 20
0.684000000
 10
303.247100897
 20
0.741000000
 10
305.247062147
 20
0.783000000
 10
307.246867387
 20
0.737000000
 10
309.246828637
 20
0.743000000
 10
311.246789886
 20
0.707000000
 10
313.246751136
 20
0.690000000
 10
315.247337050
 20
0.676000000
 10
317.247298300
 20
0.727000000
 10
319.246478632
 20
0.843000000
 10
321.246439882
 20
0.917000000
 10
323.247025796
 20
0.931000000
 10
325.246987045
 20
1.122000000
 10
327.246948295
 20
1.364000000
 10
329.246909545
 20
1.539000000
 10
331.247495459
 20
2.023000000
 10
333.246675791
 20
2.507000000
 10
335.246637040
 20
2.866000000
 10
337.246598290
 20
3.079000000
 10
339.247184204
 20
3.493000000
 10
341.247145454
 20
4.424000000
 10
343.247106703
 20
4.717000000
 10
345.246287036
 20
4.982000000
 10
347.246872950
 20
5.104000000
 10
349.246834199
 20
5.215000000
 10
351.246795449
 20
5.322000000
 10
353.247381363
 20
5.636000000
 10
355.247342613
 20
5.457000000
 10
357.246522945
 20
5.173000000
 10
359.246484194
 20
5.510000000
 10
361.247070108
 20
6.029000000
 10
363.247031358
 20
6.548000000
 10
365.246992608
 20
6.980000000
 10
367.246953857
 20
7.439000000
 10
369.247539771
 20
7.940000000
 10
371.246720104
 20
8.279000000
 10
373.246681353
 20
8.749000000
 10
375.246642603
 20
9.230000000
 10
377.247228517
 20
9.719000000
 10
379.247189767
 20
10.219000000
 10
381.247151016
 20
10.745000000
 10
383.246331348
 20
11.296000000
 10
385.246917263
 20
11.830000000
 10
387.246878512
 20
12.337000000
 10
398.067835631
 20
11.690000000
 10
412.504407092
 20
12.020000000
 10
427.847681560
 20
15.600000000
 10
450.404690266
 20
16.590000000
 10
472.844667483
 20
16.640000000
 10
490.059449411
 20
19.920000000
 10
499.791543623
 20
23.300000000
 10
510.535566272
 20
23.300000000
 10
514.492745489
 20
19.840000000
 10
531.643604399
 20
19.290000000
  0
LWPOLYLINE
100
AcDbEntity
  8
DESIGN_CENTER
 62
1
100
AcDbPolyline
 90
330
 70
0
 10
0.000000000
 20
27.980000000
 10
16.920190665
 20
28.020000000
 10
28.463996293
 20
17.900000000
 10
58.113971916
 20
16.400000000
 10
76.054744311
 20
11.200000000
 10
78.000000000
 20
11.579555480
 10
80.000000000
 20
11.987887007
 10
82.000000000
 20
12.338679168
 10
84.000000000
 20
12.592034547
 10
86.000000000
 20
12.733741576
 10
87.247070197
 20
12.766971005
 10
88.000000000
 20
12.610834827
 10
89.247031447
 20
12.322043372
 10
90.000000000
 20
12.217950970
 10
91.246836687
 20
12.020670478
 10
92.000000000
 20
11.975211162
 10
93.246797937
 20
11.880668059
 10
94.000000000
 20
11.780025225
 10
95.246759187
 20
11.599369599
 10
96.000000000
 20
11.479681994
 10
97.246720436
 20
11.271894467
 10
98.000000000
 20
11.209635877
 10
99.247306350
 20
11.100159541
 10
100.000000000
 20
11.046174520
 10
101.247267600
 20
10.952507096
 10
102.000000000
 20
10.833697553
 10
103.247228850
 20
10.633708295
 10
104.000000000
 20
10.420802503
 10
105.246409182
 20
10.065252602
 10
106.000000000
 20
9.935760182
 10
107.246995096
 20
9.717728212
 10
108.000000000
 20
9.646926404
 10
109.246956346
 20
9.524593305
 10
110.000000000
 20
9.311474129
 10
111.246917595
 20
8.951828196
 10
112.000000000
 20
8.744958907
 10
113.246878845
 20
8.394041317
 10
114.000000000
 20
8.176563948
 10
115.247464759
 20
7.806758000
 10
116.000000000
 20
7.577636660
 10
117.246645091
 20
7.188423758
 10
118.000000000
 20
7.025535894
 10
119.246606341
 20
6.748083216
 10
120.000000000
 20
6.764285793
 10
121.246567590
 20
6.787644471
 10
122.000000000
 20
6.496623389
 10
123.247153504
 20
6.019662058
 10
124.000000000
 20
5.580217796
 10
125.247114754
 20
4.870058123
 10
126.000000000
 20
4.628120352
 10
127.247076004
 20
4.263999731
 10
127.291583188
 20
4.270000000
 10
128.000000000
 20
4.376671143
 10
129.246256336
 20
4.606585097
 10
130.000000000
 20
4.686567011
 10
131.246842250
 20
4.841320549
 10
132.000000000
 20
4.765410905
 10
133.246803500
 20
4.647403161
 10
134.000000000
 20
4.576776794
 10
135.246764749
 20
4.457838643
 10
136.000000000
 20
4.356023456
 10
137.246725999
 20
4.179819439
 10
138.000000000
 20
4.284854270
 10
139.247311913
 20
4.448424642
 10
140.000000000
 20
4.452122141
 10
141.247273163
 20
4.447309995
 10
142.000000000
 20
4.479783827
 10
143.246453495
 20
4.523347858
 10
144.000000000
 20
4.543650006
 10
145.247039409
 20
4.568465258
 10
146.000000000
 20
4.579166904
 10
147.247000659
 20
4.589843256
 10
148.000000000
 20
4.592698217
 10
149.246961908
 20
4.592119110
 10
150.000000000
 20
4.589173441
 10
151.246923158
 20
4.580562255
 10
152.000000000
 20
4.573625257
 10
153.247509072
 20
4.559716194
 10
154.000000000
 20
4.550272186
 10
155.246689404
 20
4.533245130
 10
156.000000000
 20
4.522429764
 10
157.246650654
 20
4.503911381
 10
158.000000000
 20
4.492557626
 10
159.246611903
 20
4.473671447
 10
160.000000000
 20
4.421664147
 10
161.247197817
 20
4.335796176
 10
162.000000000
 20
4.315782117
 10
163.247159067
 20
4.283028508
 10
164.000000000
 20
4.265790696
 10
165.247120317
 20
4.237706981
 10
166.000000000
 20
4.255681050
 10
167.246300649
 20
4.285902582
 10
168.000000000
 20
4.274293302
 10
169.246886563
 20
4.255509172
 10
170.000000000
 20
4.247026247
 10
171.246847813
 20
4.233335473
 10
172.000000000
 20
4.246716121
 10
173.246809062
 20
4.269145406
 10
174.000000000
 20
4.269277178
 10
175.246770312
 20
4.269700096
 10
176.000000000
 20
4.270429891
 10
177.247356226
 20
4.271776181
 10
178.000000000
 20
4.272272531
 10
179.247317476
 20
4.273173064
 10
180.000000000
 20
4.273743244
 10
181.246497808
 20
4.274712115
 10
182.000000000
 20
4.262484046
 10
183.246459057
 20
4.242231568
 10
184.000000000
 20
4.230335747
 10
185.247044971
 20
4.210576832
 10
186.000000000
 20
4.201592820
 10
187.247006221
 20
4.186592947
 10
188.000000000
 20
4.177443387
 10
189.246967471
 20
4.162119893
 10
190.000000000
 20
4.152745712
 10
191.247553385
 20
4.136991620
 10
192.000000000
 20
4.127329303
 10
193.246733717
 20
4.111046584
 10
194.000000000
 20
4.101030845
 10
195.246694966
 20
4.084140764
 10
196.000000000
 20
4.076372812
 10
197.246656216
 20
4.063184631
 10
198.000000000
 20
3.945439762
 10
199.247242130
 20
3.750185210
 10
200.000000000
 20
3.593747603
 10
201.247203380
 20
3.334316592
 10
202.000000000
 20
3.109884359
 10
203.247164630
 20
2.737990135
 10
204.000000000
 20
2.596309664
 10
205.246344961
 20
2.361955761
 10
206.000000000
 20
2.138112160
 10
207.246930876
 20
1.768389550
 10
208.000000000
 20
1.846103841
 10
209.246892125
 20
1.976008787
 10
210.000000000
 20
2.082233194
 10
211.246853375
 20
2.260122167
 10
212.000000000
 20
2.591335866
 10
213.246814624
 20
3.142656799
 10
214.000000000
 20
3.364891614
 10
215.247400539
 20
3.737094858
 10
216.000000000
 20
3.832972813
 10
217.247361788
 20
3.997233071
 10
218.000000000
 20
4.036045481
 10
219.246542120
 20
4.106800646
 10
220.000000000
 20
4.142514211
 10
221.246503370
 20
4.208884964
 10
222.000000000
 20
4.453903873
 10
223.247089284
 20
4.866877991
 10
224.000000000
 20
4.906303898
 10
225.247050534
 20
4.978103121
 10
226.000000000
 20
4.949238904
 10
227.247011783
 20
4.905302582
 10
228.000000000
 20
4.970920808
 10
229.246973033
 20
5.078472869
 10
230.000000000
 20
5.117371977
 10
231.246778274
 20
5.172602541
 10
232.000000000
 20
5.340129460
 10
233.246739523
 20
5.596399561
 10
233.855335041
 20
5.400000000
 10
234.000000000
 20
5.351747008
 10
235.246700773
 20
4.911850512
 10
236.000000000
 20
5.300262682
 10
237.246662023
 20
5.924012403
 10
238.000000000
 20
5.910100947
 10
239.247247937
 20
5.879274990
 10
240.000000000
 20
5.838735393
 10
241.247209186
 20
5.771348598
 10
242.000000000
 20
5.791199904
 10
243.246389518
 20
5.828442302
 10
244.000000000
 20
5.753990363
 10
245.246975432
 20
5.637524732
 10
246.000000000
 20
5.545638380
 10
247.246936682
 20
5.400965527
 10
248.000000000
 20
5.351571678
 10
249.246897932
 20
5.276990455
 10
250.000000000
 20
5.235615874
 10
251.246859181
 20
5.173441569
 10
252.000000000
 20
5.139665415
 10
253.247445095
 20
5.088900136
 10
254.000000000
 20
5.060935175
 10
255.247406345
 20
5.018553284
 10
256.000000000
 20
4.994940775
 10
257.246586677
 20
4.958679095
 10
258.000000000
 20
4.946031332
 10
259.246547927
 20
4.926999915
 10
260.000000000
 20
4.871526538
 10
261.247133841
 20
4.780837083
 10
262.000000000
 20
4.688506220
 10
263.247095091
 20
4.536121555
 10
264.000000000
 20
4.446556468
 10
265.247056340
 20
4.298364272
 10
266.000000000
 20
4.215654773
 10
267.247017590
 20
4.078571247
 10
268.000000000
 20
4.097706646
 10
269.246822830
 20
4.129145463
 10
270.000000000
 20
4.069626284
 10
271.246784080
 20
3.970790377
 10
272.000000000
 20
3.983951364
 10
273.246745330
 20
4.005418637
 10
274.000000000
 20
4.024985113
 10
275.246706579
 20
4.057079761
 10
276.000000000
 20
4.073672236
 10
277.247292494
 20
4.100901974
 10
278.000000000
 20
4.117212047
 10
279.247253743
 20
4.144047420
 10
280.000000000
 20
4.160154121
 10
281.246434075
 20
4.186685842
 10
282.000000000
 20
4.205291928
 10
283.246395325
 20
4.235974237
 10
284.000000000
 20
4.246945430
 10
285.246981239
 20
4.265045657
 10
286.000000000
 20
4.262780548
 10
287.246942489
 20
4.259005446
 10
288.000000000
 20
4.256719191
 10
289.246903738
 20
4.252929629
 10
290.000000000
 20
4.251019863
 10
291.246864988
 20
4.247865309
 10
292.000000000
 20
4.245590121
 10
293.247450902
 20
4.241831834
 10
294.000000000
 20
4.239567686
 10
295.246631234
 20
4.235821816
 10
296.000000000
 20
4.233557355
 10
297.246592484
 20
4.229801633
 10
298.000000000
 20
4.243713142
 10
299.247178398
 20
4.266711655
 10
300.000000000
 20
4.279440217
 10
301.247139648
 20
4.300466770
 10
302.000000000
 20
4.321768453
 10
303.247100897
 20
4.356957867
 10
304.000000000
 20
4.372481719
 10
305.247062147
 20
4.398056024
 10
306.000000000
 20
4.380265331
 10
307.246867387
 20
4.350621011
 10
308.000000000
 20
4.352171923
 10
309.246828637
 20
4.354515501
 10
310.000000000
 20
4.339966557
 10
311.246789886
 20
4.315628937
 10
312.000000000
 20
4.307924030
 10
313.246751136
 20
4.294911037
 10
314.000000000
 20
4.288032764
 10
315.247337050
 20
4.276416644
 10
316.000000000
 20
4.293761091
 10
317.247298300
 20
4.322371042
 10
318.000000000
 20
4.364095579
 10
319.246478632
 20
4.433234873
 10
320.000000000
 20
4.459314156
 10
321.246439882
 20
4.502781090
 10
322.000000000
 20
4.506796163
 10
323.247025796
 20
4.514186579
 10
324.000000000
 20
4.585943918
 10
325.246987045
 20
4.706095975
 10
326.000000000
 20
4.798912247
 10
327.246948295
 20
4.954656251
 10
328.000000000
 20
5.025040458
 10
329.246909545
 20
5.144502551
 10
330.000000000
 20
5.335076885
 10
331.247495459
 20
5.654657211
 10
332.000000000
 20
5.850280532
 10
333.246675791
 20
6.179232094
 10
334.000000000
 20
6.334119885
 10
335.246637040
 20
6.596119701
 10
336.000000000
 20
6.703092494
 10
337.246598290
 20
6.886217987
 10
338.000000000
 20
7.076221683
 10
339.247184204
 20
7.396595911
 10
340.000000000
 20
7.787727911
 10
341.247145454
 20
8.440119355
 10
342.000000000
 20
8.595440297
 10
343.247106703
 20
8.854097223
 10
344.000000000
 20
8.998770165
 10
345.246287036
 20
9.234338183
 10
346.000000000
 20
9.317661109
 10
347.246872950
 20
9.443475436
 10
348.000000000
 20
9.504019170
 10
348.858419066
 20
9.560000000
 10
349.246834199
 20
9.579595991
 10
350.000000000
 20
9.606893621
 10
351.246795449
 20
9.630561718
 10
352.000000000
 20
9.714232513
 10
353.247381363
 20
9.842442288
 10
354.000000000
 20
9.731245690
 10
355.247342613
 20
9.544500580
 10
356.000000000
 20
9.392891136
 10
357.246522945
 20
9.144513563
 10
358.000000000
 20
9.231287996
 10
359.246484194
 20
9.380584975
 10
360.000000000
 20
9.543457090
 10
361.247070108
 20
9.820211978
 10
362.000000000
 20
9.991900382
 10
363.247031358
 20
10.283789055
 10
364.000000000
 20
10.431706397
 10
365.246992608
 20
10.683770268
 10
366.000000000
 20
10.850099798
 10
367.246953857
 20
11.131664688
 10
368.000000000
 20
11.320667357
 10
369.247539771
 20
11.638529179
 10
370.000000000
 20
11.771631730
 10
371.246720104
 20
11.995130876
 10
372.000000000
 20
12.180454277
 10
373.246681353
 20
12.487911391
 10
374.000000000
 20
12.677290732
 10
375.246642603
 20
12.988667226
 10
376.000000000
 20
13.177330626
 10
377.247228517
 20
13.484225508
 10
378.000000000
 20
13.668851674
 10
379.247189767
 20
13.965135046
 10
380.000000000
 20
14.146171921
 10
381.247151016
 20
14.431604739
 10
382.000000000
 20
14.602635674
 10
383.246331348
 20
14.865877747
 10
384.000000000
 20
15.004354301
 10
385.246917263
 20
15.207947363
 10
386.000000000
 20
15.303424787
 10
387.246878512
 20
15.430977994
 10
388.000000000
 20
15.252189433
 10
390.000000000
 20
14.702616069
 10
392.000000000
 20
14.043498469
 10
394.000000000
 20
13.291299391
 10
396.000000000
 20
12.488473631
 10
398.000000000
 20
11.713589886
 10
398.067835631
 20
11.690000000
 10
412.504407092
 20
12.020000000
 10
427.847681560
 20
15.600000000
 10
450.404690266
 20
16.590000000
 10
472.844667483
 20
16.640000000
 10
490.059449411
 20
19.920000000
 10
499.791543623
 20
23.300000000
 10
510.535566272
 20
23.300000000
 10
514.492745489
 20
19.840000000
 10
531.643604399
 20
19.290000000
  0
LWPOLYLINE
100
AcDbEntity
  8
DESIGN_LOCAL
 62
5
100
AcDbPolyline
 90
319
 70
0
 10
0.000000000
 20
27.980000000
 10
16.920190665
 20
28.020000000
 10
28.463996293
 20
17.900000000
 10
58.113971916
 20
16.400000000
 10
76.054744311
 20
11.200000000
 10
87.247070197
 20
9.560000000
 10
88.000000000
 20
9.637169567
 10
89.247031447
 20
9.816851315
 10
90.000000000
 20
10.010697860
 10
91.246836687
 20
10.306275635
 10
92.000000000
 20
10.540695660
 10
93.246797937
 20
10.868565939
 10
94.000000000
 20
10.992193751
 10
95.246759187
 20
11.129115805
 10
96.000000000
 20
11.169352936
 10
97.246720436
 20
11.175761515
 10
98.000000000
 20
11.216141386
 10
99.247306350
 20
11.236670475
 10
100.000000000
 20
11.241793074
 10
101.247267600
 20
11.218719179
 10
102.000000000
 20
11.130484439
 10
103.247228850
 20
10.965285507
 10
104.000000000
 20
10.767366879
 10
105.246409182
 20
10.429689072
 10
106.000000000
 20
10.309235081
 10
107.246995096
 20
10.105089533
 10
108.000000000
 20
10.043311673
 10
109.246956346
 20
9.937722220
 10
110.000000000
 20
9.736023619
 10
111.246917595
 20
9.397195900
 10
112.000000000
 20
9.203338270
 10
113.246878845
 20
8.873577182
 10
114.000000000
 20
8.667174980
 10
115.247464759
 20
8.311152681
 10
116.000000000
 20
8.085662588
 10
117.246645091
 20
7.692735907
 10
118.000000000
 20
7.519823437
 10
119.246606341
 20
7.211338912
 10
120.000000000
 20
7.199004868
 10
121.246567590
 20
7.158798014
 10
122.000000000
 20
6.820466317
 10
123.247153504
 20
6.253110352
 10
124.000000000
 20
5.756419321
 10
125.247114754
 20
4.954138636
 10
126.000000000
 20
4.668245631
 10
127.247076004
 20
4.264027582
 10
127.291583188
 20
4.270000000
 10
128.000000000
 20
4.389493783
 10
129.246256336
 20
4.685785220
 10
130.000000000
 20
4.818436040
 10
131.246842250
 20
5.069836723
 10
132.000000000
 20
5.049985711
 10
133.246803500
 20
5.015429472
 10
134.000000000
 20
4.986281810
 10
135.246764749
 20
4.919595293
 10
136.000000000
 20
4.839174386
 10
137.246725999
 20
4.682185883
 10
138.000000000
 20
4.790357235
 10
139.247311913
 20
4.946746684
 10
140.000000000
 20
4.940496596
 10
141.247273163
 20
4.911745042
 10
142.000000000
 20
4.927031291
 10
143.246453495
 20
4.939172229
 10
144.000000000
 20
4.940043946
 10
145.247039409
 20
4.933100690
 10
146.000000000
 20
4.925733294
 10
147.247000659
 20
4.908953937
 10
148.000000000
 20
4.897141732
 10
149.246961908
 20
4.875679601
 10
150.000000000
 20
4.862260082
 10
151.246923158
 20
4.839804364
 10
152.000000000
 20
4.826479418
 10
153.247509072
 20
4.805053010
 10
154.000000000
 20
4.792669595
 10
155.246689404
 20
4.773138971
 10
156.000000000
 20
4.761955773
 10
157.246650654
 20
4.744444496
 10
158.000000000
 20
4.734410950
 10
159.246611903
 20
4.718644914
 10
160.000000000
 20
4.668872853
 10
161.247197817
 20
4.587097323
 10
162.000000000
 20
4.569633146
 10
163.247159067
 20
4.541107845
 10
164.000000000
 20
4.526324260
 10
165.247120317
 20
4.502067530
 10
166.000000000
 20
4.522154474
 10
167.246300649
 20
4.555512280
 10
168.000000000
 20
4.545562928
 10
169.246886563
 20
4.529127927
 10
170.000000000
 20
4.521829776
 10
171.246847813
 20
4.509726353
 10
172.000000000
 20
4.523859373
 10
173.246809062
 20
4.547215810
 10
174.000000000
 20
4.547741475
 10
175.246770312
 20
4.548568654
 10
176.000000000
 20
4.549420860
 10
177.247356226
 20
4.550795638
 10
178.000000000
 20
4.551230985
 10
179.247317476
 20
4.551926791
 10
180.000000000
 20
4.552335828
 10
181.246497808
 20
4.552999508
 10
182.000000000
 20
4.540586827
 10
183.246459057
 20
4.520051093
 10
184.000000000
 20
4.508019177
 10
185.247044971
 20
4.488114615
 10
186.000000000
 20
4.479111771
 10
187.247006221
 20
4.464215986
 10
188.000000000
 20
4.455231472
 10
189.246967471
 20
4.440370480
 10
190.000000000
 20
4.431408972
 10
191.247553385
 20
4.416577234
 10
192.000000000
 20
4.407630739
 10
193.246733717
 20
4.392810657
 10
194.000000000
 20
4.383854174
 10
195.246694966
 20
4.369010356
 10
196.000000000
 20
4.362651655
 10
197.246656216
 20
4.352068232
 10
198.000000000
 20
4.236038164
 10
199.247242130
 20
4.043818797
 10
200.000000000
 20
3.889279946
 10
201.247203380
 20
3.633037384
 10
202.000000000
 20
3.410468752
 10
203.247164630
 20
3.041454534
 10
204.000000000
 20
2.901260129
 10
205.246344961
 20
2.668800753
 10
206.000000000
 20
2.445591850
 10
207.246930876
 20
2.075886648
 10
208.000000000
 20
2.152784955
 10
209.246892125
 20
2.279757055
 10
210.000000000
 20
2.383035656
 10
211.246853375
 20
2.553888611
 10
212.000000000
 20
2.879345482
 10
213.246814624
 20
3.418465628
 10
214.000000000
 20
3.631577544
 10
215.247400539
 20
3.985684388
 10
216.000000000
 20
4.068825614
 10
217.247361788
 20
4.209032240
 10
218.000000000
 20
4.231723338
 10
219.246542120
 20
4.273398620
 10
220.000000000
 20
4.290500179
 10
221.246503370
 20
4.324896312
 10
222.000000000
 20
4.550522307
 10
223.247089284
 20
4.932047797
 10
224.000000000
 20
4.953715469
 10
225.247050534
 20
4.999003994
 10
226.000000000
 20
4.956739148
 10
227.247011783
 20
4.895667049
 10
228.000000000
 20
4.954548642
 10
229.246973033
 20
5.057147830
 10
230.000000000
 20
5.096592880
 10
231.246778274
 20
5.157755805
 10
232.000000000
 20
5.330344538
 10
233.246739523
 20
5.594959862
 10
233.855335041
 20
5.400000000
 10
234.000000000
 20
5.351674726
 10
235.246700773
 20
4.905198299
 10
236.000000000
 20
5.288464748
 10
237.246662023
 20
5.904702781
 10
238.000000000
 20
5.888819307
 10
239.247247937
 20
5.860138105
 10
240.000000000
 20
5.824624929
 10
241.247209186
 20
5.771718119
 10
242.000000000
 20
5.803597656
 10
243.246389518
 20
5.865536861
 10
244.000000000
 20
5.808092404
 10
245.246975432
 20
5.722337612
 10
246.000000000
 20
5.649687813
 10
247.246936682
 20
5.537219062
 10
248.000000000
 20
5.506783844
 10
249.246897932
 20
5.462196672
 10
250.000000000
 20
5.437632681
 10
251.246859181
 20
5.400791668
 10
252.000000000
 20
5.380588912
 10
253.247445095
 20
5.349326670
 10
254.000000000
 20
5.331310175
 10
255.247406345
 20
5.302460102
 10
256.000000000
 20
5.285343170
 10
257.246586677
 20
5.257237669
 10
258.000000000
 20
5.248138054
 10
259.246547927
 20
5.232901356
 10
260.000000000
 20
5.178685297
 10
261.247133841
 20
5.088577352
 10
262.000000000
 20
4.995900831
 10
263.247095091
 20
4.841983580
 10
264.000000000
 20
4.751090563
 10
265.247056340
 20
4.600188878
 10
266.000000000
 20
4.515671607
 10
267.247017590
 20
4.375424512
 10
268.000000000
 20
4.392641761
 10
269.246822830
 20
4.420966724
 10
270.000000000
 20
4.359661723
 10
271.246784080
 20
4.258069202
 10
272.000000000
 20
4.269713388
 10
273.246745330
 20
4.288932357
 10
274.000000000
 20
4.307305445
 10
275.246706579
 20
4.337696799
 10
276.000000000
 20
4.353416832
 10
277.247292494
 20
4.379449611
 10
278.000000000
 20
4.395171373
 10
279.247253743
 20
4.421236682
 10
280.000000000
 20
4.436983723
 10
281.246434075
 20
4.463075171
 10
282.000000000
 20
4.481490573
 10
283.246395325
 20
4.511964853
 10
284.000000000
 20
4.522858866
 10
285.246981239
 20
4.540897026
 10
286.000000000
 20
4.538620941
 10
287.246942489
 20
4.534860239
 10
288.000000000
 20
4.532592885
 10
289.246903738
 20
4.528843936
 10
290.000000000
 20
4.526958620
 10
291.246864988
 20
4.523840578
 10
292.000000000
 20
4.521583048
 10
293.247450902
 20
4.517846537
 10
294.000000000
 20
4.515592626
 10
295.246631234
 20
4.511862276
 10
296.000000000
 20
4.509611434
 10
297.246592484
 20
4.505892071
 10
298.000000000
 20
4.519842394
 10
299.247178398
 20
4.542943121
 10
300.000000000
 20
4.555767879
 10
301.247139648
 20
4.577023869
 10
302.000000000
 20
4.598520495
 10
303.247100897
 20
4.634141309
 10
304.000000000
 20
4.650006688
 10
305.247062147
 20
4.676296583
 10
306.000000000
 20
4.659043636
 10
307.246867387
 20
4.630478708
 10
308.000000000
 20
4.632807601
 10
309.246828637
 20
4.636656423
 10
310.000000000
 20
4.623152565
 10
311.246789886
 20
4.600768580
 10
312.000000000
 20
4.594370924
 10
313.246751136
 20
4.583715106
 10
314.000000000
 20
4.578350819
 10
315.247337050
 20
4.569351459
 10
316.000000000
 20
4.588288591
 10
317.247298300
 20
4.619492895
 10
318.000000000
 20
4.662671998
 10
319.246478632
 20
4.733935214
 10
320.000000000
 20
4.761007427
 10
321.246439882
 20
4.805499447
 10
322.000000000
 20
4.809608612
 10
323.247025796
 20
4.816118312
 10
324.000000000
 20
4.886540770
 10
325.246987045
 20
5.002969106
 10
326.000000000
 20
5.092438816
 10
327.246948295
 20
5.240646982
 10
328.000000000
 20
5.305114786
 10
329.246909545
 20
5.412386464
 10
330.000000000
 20
5.594055654
 10
331.247495459
 20
5.896283966
 10
332.000000000
 20
6.079889021
 10
333.246675791
 20
6.386454626
 10
334.000000000
 20
6.526497946
 10
335.246637040
 20
6.762027021
 10
336.000000000
 20
6.852225390
 10
337.246598290
 20
7.006779108
 10
338.000000000
 20
7.179586545
 10
339.247184204
 20
7.472248294
 10
340.000000000
 20
7.847793284
 10
341.247145454
 20
8.476938150
 10
342.000000000
 20
8.620427050
 10
343.247106703
 20
8.863651972
 10
344.000000000
 20
9.001860551
 10
345.246287036
 20
9.231478956
 10
346.000000000
 20
9.313727839
 10
347.246872950
 20
9.441073228
 10
348.000000000
 20
9.503074641
 10
348.858419066
 20
9.560000000
 10
349.246834199
 20
9.579156220
 10
350.000000000
 20
9.604597384
 10
351.246795449
 20
9.624854258
 10
352.000000000
 20
9.708096116
 10
353.247381363
 20
9.839503638
 10
354.000000000
 20
9.733242263
 10
355.247342613
 20
9.559889715
 10
356.000000000
 20
9.419402619
 10
357.246522945
 20
9.194162104
 10
358.000000000
 20
9.297305223
 10
359.246484194
 20
9.477087702
 10
360.000000000
 20
9.659882214
 10
361.247070108
 20
9.971522577
 10
362.000000000
 20
10.164887294
 10
363.247031358
 20
10.493162598
 10
364.000000000
 20
10.662806482
 10
365.246992608
 20
10.949860151
 10
366.000000000
 20
11.136046302
 10
367.246953857
 20
11.447555147
 10
368.000000000
 20
11.651830202
 10
369.247539771
 20
11.989007898
 10
370.000000000
 20
12.128488470
 10
371.246720104
 20
12.351751516
 10
372.000000000
 20
12.527885183
 10
373.246681353
 20
12.802175789
 10
374.000000000
 20
12.957220205
 10
375.246642603
 20
13.184295233
 10
376.000000000
 20
13.301282574
 10
377.247228517
 20
13.450995688
 10
378.000000000
 20
13.513489984
 10
379.247189767
 20
13.558877077
 10
380.000000000
 20
13.556822694
 10
381.247151016
 20
13.486014434
 10
382.000000000
 20
13.412025437
 10
383.246331348
 20
13.225680008
 10
384.000000000
 20
13.075859588
 10
385.246917263
 20
12.791573868
 10
386.000000000
 20
12.609222747
 10
387.246878512
 20
12.337000000
 10
398.067835631
 20
11.690000000
 10
412.504407092
 20
12.020000000
 10
427.847681560
 20
15.600000000
 10
450.404690266
 20
16.590000000
 10
472.844667483
 20
16.640000000
 10
490.059449411
 20
19.920000000
 10
499.791543623
 20
23.300000000
 10
510.535566272
 20
23.300000000
 10
514.492745489
 20
19.840000000
 10
531.643604399
 20
19.290000000
  0
LWPOLYLINE
100
AcDbEntity
  8
DESIGN_DISTRIBUTED
 62
3
100
AcDbPolyline
 90
353
 70
0
 10
0.000000000
 20
27.980000000
 10
16.920190665
 20
28.020000000
 10
28.463996293
 20
17.900000000
 10
58.113971916
 20
16.400000000
 10
60.000000000
 20
16.219159434
 10
62.000000000
 20
16.045098490
 10
64.000000000
 20
15.864794327
 10
66.000000000
 20
15.661101813
 10
68.000000000
 20
15.422922964
 10
70.000000000
 20
15.144003775
 10
72.000000000
 20
14.821841392
 10
74.000000000
 20
14.456721668
 10
76.000000000
 20
14.050895087
 10
76.054744311
 20
14.039263985
 10
78.000000000
 20
13.886723695
 10
80.000000000
 20
13.697406523
 10
82.000000000
 20
13.479688103
 10
84.000000000
 20
13.238054116
 10
86.000000000
 20
12.976701316
 10
87.247070197
 20
12.805652402
 10
88.000000000
 20
12.542790217
 10
89.247031447
 20
12.103439075
 10
90.000000000
 20
11.922641666
 10
91.246836687
 20
11.620075742
 10
92.000000000
 20
11.522257481
 10
93.246797937
 20
11.357754631
 10
94.000000000
 20
11.223101008
 10
95.246759187
 20
10.998065482
 10
96.000000000
 20
10.857153145
 10
97.246720436
 20
10.622033926
 10
98.000000000
 20
10.546698158
 10
99.247306350
 20
10.420173122
 10
100.000000000
 20
10.357783556
 10
101.247267600
 20
10.252608416
 10
102.000000000
 20
10.127802230
 10
103.247228850
 20
9.919119474
 10
104.000000000
 20
9.701564752
 10
105.246409182
 20
9.339319398
 10
106.000000000
 20
9.206552150
 10
107.246995096
 20
8.984686037
 10
108.000000000
 20
8.912955296
 10
109.246956346
 20
8.791910682
 10
110.000000000
 20
8.581892870
 10
111.246917595
 20
8.231898461
 10
112.000000000
 20
8.034286161
 10
113.246878845
 20
7.705059031
 10
114.000000000
 20
7.505172621
 10
115.247464759
 20
7.172490167
 10
116.000000000
 20
6.970986761
 10
117.246645091
 20
6.636367708
 10
118.000000000
 20
6.511746158
 10
119.246606341
 20
6.305915692
 10
120.000000000
 20
6.369576344
 10
121.246567590
 20
6.476993845
 10
122.000000000
 20
6.238159835
 10
123.247153504
 20
5.847193956
 10
124.000000000
 20
5.455970035
 10
125.247114754
 20
4.815224536
 10
126.000000000
 20
4.603567413
 10
127.247076004
 20
4.263997473
 10
127.291583188
 20
4.270000000
 10
128.000000000
 20
4.368495041
 10
129.246256336
 20
4.553695183
 10
130.000000000
 20
4.594598374
 10
131.246842250
 20
4.670483457
 10
132.000000000
 20
4.543028968
 10
133.246803500
 20
4.337016152
 10
134.000000000
 20
4.214565065
 10
135.246764749
 20
4.014299915
 10
136.000000000
 20
3.867642667
 10
137.246725999
 20
3.625391184
 10
138.000000000
 20
3.696066270
 10
139.247311913
 20
3.812176153
 10
140.000000000
 20
3.792868654
 10
141.247273163
 20
3.758995771
 10
142.000000000
 20
3.778946959
 10
143.246453495
 20
3.809511892
 10
144.000000000
 20
3.825990132
 10
145.247039409
 20
3.850476269
 10
146.000000000
 20
3.863908718
 10
147.247000659
 20
3.883284220
 10
148.000000000
 20
3.893269250
 10
149.246961908
 20
3.907007250
 10
150.000000000
 20
3.913677670
 10
151.246923158
 20
3.922109644
 10
152.000000000
 20
3.925718201
 10
153.247509072
 20
3.929333878
 10
154.000000000
 20
3.930192466
 10
155.246689404
 20
3.929545240
 10
156.000000000
 20
3.928019300
 10
157.246650654
 20
3.923723680
 10
158.000000000
 20
3.920169236
 10
159.246611903
 20
3.912809251
 10
160.000000000
 20
3.866903262
 10
161.247197817
 20
3.789699788
 10
162.000000000
 20
3.774067384
 10
163.247159067
 20
3.747202805
 10
164.000000000
 20
3.732741746
 10
165.247120317
 20
3.708026876
 10
166.000000000
 20
3.727356206
 10
167.246300649
 20
3.758766306
 10
168.000000000
 20
3.747306959
 10
169.246886563
 20
3.727898049
 10
170.000000000
 20
3.718577203
 10
171.246847813
 20
3.702799828
 10
172.000000000
 20
3.714556864
 10
173.246809062
 20
3.733751874
 10
174.000000000
 20
3.731649995
 10
175.246770312
 20
3.727958166
 10
176.000000000
 20
3.725991618
 10
177.247356226
 20
3.722562328
 10
178.000000000
 20
3.720024978
 10
179.247317476
 20
3.715678756
 10
180.000000000
 20
3.712982147
 10
181.246497808
 20
3.708405611
 10
182.000000000
 20
3.692775385
 10
183.246459057
 20
3.666846006
 10
184.000000000
 20
3.651524953
 10
185.247044971
 20
3.626148962
 10
186.000000000
 20
3.613849341
 10
187.247006221
 20
3.593534873
 10
188.000000000
 20
3.581340086
 10
189.246967471
 20
3.561309992
 10
190.000000000
 20
3.549369499
 10
191.247553385
 20
3.529902622
 10
192.000000000
 20
3.518416158
 10
193.246733717
 20
3.499897724
 10
194.000000000
 20
3.489114782
 10
195.246694966
 20
3.472037111
 10
196.000000000
 20
3.464933687
 10
197.246656216
 20
3.454262749
 10
198.000000000
 20
3.339030942
 10
199.247242130
 20
3.149717822
 10
200.000000000
 20
2.998079367
 10
201.247203380
 20
2.748746111
 10
202.000000000
 20
2.531835248
 10
203.247164630
 20
2.174886076
 10
204.000000000
 20
2.043834718
 10
205.246344961
 20
1.829827331
 10
206.000000000
 20
1.620017120
 10
207.246930876
 20
1.276413535
 10
208.000000000
 20
1.371657483
 10
209.246892125
 20
1.533457454
 10
210.000000000
 20
1.660599485
 10
211.246853375
 20
1.875726495
 10
212.000000000
 20
2.230823294
 10
213.246814624
 20
2.823740095
 10
214.000000000
 20
3.072042669
 10
215.247400539
 20
3.488611537
 10
216.000000000
 20
3.611551902
 10
217.247361788
 20
3.820674098
 10
218.000000000
 20
3.886028784
 10
219.246542120
 20
3.999301401
 10
220.000000000
 20
4.059240851
 10
221.246503370
 20
4.162644464
 10
222.000000000
 20
4.427608440
 10
223.247089284
 20
4.868994517
 10
224.000000000
 20
4.922307960
 10
225.247050534
 20
5.011323018
 10
226.000000000
 20
4.989127399
 10
227.247011783
 20
4.950035690
 10
228.000000000
 20
5.015048685
 10
229.246973033
 20
5.116274584
 10
230.000000000
 20
5.149012889
 10
231.246778274
 20
5.191464009
 10
232.000000000
 20
5.351469926
 10
233.246739523
 20
5.597900459
 10
233.855335041
 20
5.400000000
 10
234.000000000
 20
5.351827888
 10
235.246700773
 20
4.919127076
 10
236.000000000
 20
5.314436557
 10
237.246662023
 20
5.951289469
 10
238.000000000
 20
5.944325732
 10
239.247247937
 20
5.921888609
 10
240.000000000
 20
5.883474165
 10
241.247209186
 20
5.814059820
 10
242.000000000
 20
5.828992382
 10
243.246389518
 20
5.851896404
 10
244.000000000
 20
5.765175603
 10
245.246975432
 20
5.622765187
 10
246.000000000
 20
5.512249646
 10
247.246936682
 20
5.332353042
 10
248.000000000
 20
5.259629373
 10
249.246897932
 20
5.143619286
 10
250.000000000
 20
5.076139402
 10
251.246859181
 20
4.969537162
 10
252.000000000
 20
4.908748341
 10
253.247445095
 20
4.813453413
 10
254.000000000
 20
4.759203638
 10
255.247406345
 20
4.674604153
 10
256.000000000
 20
4.626666359
 10
257.246586677
 20
4.552278747
 10
258.000000000
 20
4.518107886
 10
259.246547927
 20
4.466133499
 10
260.000000000
 20
4.392461590
 10
261.247133841
 20
4.274539742
 10
262.000000000
 20
4.167524083
 10
263.247095091
 20
3.993695354
 10
264.000000000
 20
3.892864928
 10
265.247056340
 20
3.728714082
 10
266.000000000
 20
3.637893963
 10
267.247017590
 20
3.489781617
 10
268.000000000
 20
3.503575081
 10
269.246822830
 20
3.528208385
 10
270.000000000
 20
3.465664000
 10
271.246784080
 20
3.363470074
 10
272.000000000
 20
3.375452312
 10
273.246745330
 20
3.396232073
 10
274.000000000
 20
3.416008317
 10
275.246706579
 20
3.449353170
 10
276.000000000
 20
3.467122495
 10
277.247292494
 20
3.496882965
 10
278.000000000
 20
3.514964418
 10
279.247253743
 20
3.545041586
 10
280.000000000
 20
3.563200917
 10
281.246434075
 20
3.593210760
 10
282.000000000
 20
3.613896429
 10
283.246395325
 20
3.647917229
 10
284.000000000
 20
3.660791202
 10
285.246981239
 20
3.681801287
 10
286.000000000
 20
3.681109594
 10
287.246942489
 20
3.679602708
 10
288.000000000
 20
3.678456130
 10
289.246903738
 20
3.676152086
 10
290.000000000
 20
3.674882307
 10
291.246864988
 20
3.672352242
 10
292.000000000
 20
3.670187517
 10
293.247450902
 20
3.666171502
 10
294.000000000
 20
3.663492486
 10
295.246631234
 20
3.658641406
 10
296.000000000
 20
3.655473168
 10
297.246592484
 20
3.649853955
 10
298.000000000
 20
3.662444686
 10
299.247178398
 20
3.682968556
 10
300.000000000
 20
3.694069462
 10
301.247139648
 20
3.712224397
 10
302.000000000
 20
3.731740289
 10
303.247100897
 20
3.763945708
 10
304.000000000
 20
3.777720685
 10
305.247062147
 20
3.800561409
 10
306.000000000
 20
3.781302678
 10
307.246867387
 20
3.749621151
 10
308.000000000
 20
3.750279189
 10
309.246828637
 20
3.751810785
 10
310.000000000
 20
3.737288176
 10
311.246789886
 20
3.713970334
 10
312.000000000
 20
3.707597409
 10
313.246751136
 20
3.698104227
 10
314.000000000
 20
3.694279780
 10
315.247337050
 20
3.689389594
 10
316.000000000
 20
3.711930661
 10
317.247298300
 20
3.751164593
 10
318.000000000
 20
3.800633574
 10
319.246478632
 20
3.884911655
 10
320.000000000
 20
3.921634495
 10
321.246439882
 20
3.985247723
 10
322.000000000
 20
4.003027628
 10
323.247025796
 20
4.035840560
 10
324.000000000
 20
4.124531878
 10
325.246987045
 20
4.275299439
 10
326.000000000
 20
4.388063694
 10
327.246948295
 20
4.579119512
 10
328.000000000
 20
4.672017227
 10
329.246909545
 20
4.830484405
 10
330.000000000
 20
5.045366318
 10
331.247495459
 20
5.406108705
 10
332.000000000
 20
5.626705777
 10
333.246675791
 20
5.996829372
 10
334.000000000
 20
6.175992565
 10
335.246637040
 20
6.476657461
 10
336.000000000
 20
6.605560182
 10
337.246598290
 20
6.822076607
 10
338.000000000
 20
7.030009798
 10
339.247184204
 20
7.375889121
 10
340.000000000
 20
7.779523248
 10
341.247145454
 20
8.447576491
 10
342.000000000
 20
8.609190963
 10
343.247106703
 20
8.873120276
 10
344.000000000
 20
9.018176629
 10
345.246287036
 20
9.250341946
 10
346.000000000
 20
9.330078174
 10
347.246872950
 20
9.448715439
 10
348.000000000
 20
9.505858568
 10
348.858419066
 20
9.560000000
 10
349.246834199
 20
9.580027818
 10
350.000000000
 20
9.609932797
 10
351.246795449
 20
9.640645067
 10
352.000000000
 20
9.728262350
 10
353.247381363
 20
9.860952699
 10
354.000000000
 20
9.750066283
 10
355.247342613
 20
9.559051894
 10
356.000000000
 20
9.401466276
 10
357.246522945
 20
9.137296910
 10
358.000000000
 20
9.210910928
 10
359.246484194
 20
9.332570892
 10
360.000000000
 20
9.475441712
 10
361.247070108
 20
9.713989188
 10
362.000000000
 20
9.859952242
 10
363.247031358
 20
10.105304738
 10
364.000000000
 20
10.223257990
 10
365.246992608
 20
10.423136616
 10
366.000000000
 20
10.556948382
 10
367.246953857
 20
10.783553329
 10
368.000000000
 20
10.939259411
 10
369.247539771
 20
11.202370258
 10
370.000000000
 20
11.303307485
 10
371.246720104
 20
11.475584674
 10
372.000000000
 20
11.631913263
 10
373.246681353
 20
11.895388699
 10
374.000000000
 20
12.061463784
 10
375.246642603
 20
12.340641644
 10
376.000000000
 20
12.514757467
 10
377.247228517
 20
12.806888710
 10
378.000000000
 20
12.989547318
 10
379.247189767
 20
13.295528788
 10
380.000000000
 20
13.491829462
 10
381.247151016
 20
13.819846248
 10
382.000000000
 20
14.028837504
 10
383.246331348
 20
14.377075896
 10
384.000000000
 20
14.582260157
 10
385.246917263
 20
14.923417953
 10
386.000000000
 20
15.120155322
 10
387.246878512
 20
15.446985082
 10
388.000000000
 20
15.408866017
 10
390.000000000
 20
15.308646777
 10
392.000000000
 20
15.207687072
 10
394.000000000
 20
15.103536334
 10
396.000000000
 20
14.993442129
 10
398.000000000
 20
14.874300784
 10
398.067835631
 20
14.870040024
 10
400.000000000
 20
14.902260045
 10
402.000000000
 20
14.919488987
 10
404.000000000
 20
14.916104743
 10
406.000000000
 20
14.887641570
 10
408.000000000
 20
14.829537872
 10
410.000000000
 20
14.737373584
 10
412.000000000
 20
14.607202396
 10
412.504407092
 20
14.567892615
 10
414.000000000
 20
14.750569382
 10
416.000000000
 20
14.957688438
 10
418.000000000
 20
15.122889407
 10
420.000000000
 20
15.249788255
 10
422.000000000
 20
15.345968726
 10
424.000000000
 20
15.424069567
 10
426.000000000
 20
15.502970033
 10
427.847681560
 20
15.600000000
 10
450.404690266
 20
16.590000000
 10
472.844667483
 20
16.640000000
 10
490.059449411
 20
19.920000000
 10
499.791543623
 20
23.300000000
 10
510.535566272
 20
23.300000000
 10
514.492745489
 20
19.840000000
 10
531.643604399
 20
19.290000000
  0
LINE
100
AcDbEntity
  8
WSE_22_190
 62
4
100
AcDbLine
 10
0.000000000
 20
22.190000000
 30
0
 11
531.643604399
 21
22.190000000
 31
0
  0
CIRCLE
100
AcDbEntity
  8
PIER_CONTROL
 62
6
100
AcDbCircle
 10
127.291583188
 20
4.270000000
 30
0
 40
2.200000
  0
TEXT
100
AcDbEntity
  8
ANNOTATION
 62
6
100
AcDbText
 10
130.291583188
 20
5.470000000
 30
0
 40
3.200000
  1
15# Z=4.27m
 50
0.000000
100
AcDbText
  0
CIRCLE
100
AcDbEntity
  8
PIER_CONTROL
 62
6
100
AcDbCircle
 10
233.855335041
 20
5.400000000
 30
0
 40
2.200000
  0
TEXT
100
AcDbEntity
  8
ANNOTATION
 62
6
100
AcDbText
 10
236.855335041
 20
6.600000000
 30
0
 40
3.200000
  1
16# Z=5.40m
 50
0.000000
100
AcDbText
  0
CIRCLE
100
AcDbEntity
  8
PIER_CONTROL
 62
6
100
AcDbCircle
 10
348.858419066
 20
9.560000000
 30
0
 40
2.200000
  0
TEXT
100
AcDbEntity
  8
ANNOTATION
 62
6
100
AcDbText
 10
351.858419066
 20
10.760000000
 30
0
 40
3.200000
  1
17# Z=9.56m
 50
0.000000
100
AcDbText
  0
TEXT
100
AcDbEntity
  8
ANNOTATION
 62
7
100
AcDbText
 10
0.000000000
 20
38.020000000
 30
0
 40
5.000000
  1
赣江西支特大桥 桥下设计河床断面
 50
0.000000
100
AcDbText
  0
TEXT
100
AcDbEntity
  8
ANNOTATION
 62
7
100
AcDbText
 10
0.000000000
 20
32.520000000
 30
0
 40
3.000000
  1
横纵坐标单位:m；设计线为本项目约束重建成果，非原设计院完整设计河床线。
 50
0.000000
100
AcDbText
  0
TEXT
100
AcDbEntity
  8
ANNOTATION
 62
4
100
AcDbText
 10
426.643604399
 20
23.590000000
 30
0
 40
3.000000
  1
WSE=22.190m
 50
0.000000
100
AcDbText
  0
ENDSEC
  0
EOF
